<svg width="703" height="426" viewBox="0 0 703 426" fill="none" xmlns="http://www.w3.org/2000/svg">
<g opacity="0.15" clip-path="url(#clip0)">
<path d="M58.1986 92.4228C78.2071 92.4228 94.4271 76.1998 94.4271 56.1877C94.4271 36.1756 78.2071 19.9526 58.1986 19.9526C38.1902 19.9526 21.9702 36.1756 21.9702 56.1877C21.9702 76.1998 38.1902 92.4228 58.1986 92.4228Z" fill="#FF6584"/>
<path d="M349.686 426C542.812 426 699.371 419.652 699.371 411.821C699.371 403.99 542.812 397.642 349.686 397.642C156.56 397.642 0 403.99 0 411.821C0 419.652 156.56 426 349.686 426Z" fill="#E6E6E6"/>
<path d="M88.9959 234.125C138.147 234.125 177.992 194.273 177.992 145.113C177.992 95.953 138.147 56.1009 88.9959 56.1009C39.8448 56.1009 0 95.953 0 145.113C0 194.273 39.8448 234.125 88.9959 234.125Z" fill="#201462"/>
<path d="M97.5741 413.222H79.3457L87.6554 131.707L97.5741 413.222Z" fill="#3F3D56"/>
<path d="M89.2639 185.061L108.833 157.983L88.9961 191.764L86.8516 188.01L89.2639 185.061Z" fill="#3F3D56"/>
<path d="M87.1193 212.408L67.5513 185.33L87.3879 219.111L89.5325 215.358L87.1193 212.408Z" fill="#3F3D56"/>
<path d="M651.722 413.519H633.494L641.804 132.004L651.722 413.519Z" fill="#3F3D56"/>
<path d="M643.412 185.357L662.981 158.279L643.145 192.06L641 188.307L643.412 185.357Z" fill="#3F3D56"/>
<path d="M641.268 212.705L621.7 185.626L641.536 219.407L643.681 215.654L641.268 212.705Z" fill="#3F3D56"/>
<path d="M361.541 413.471C453.102 413.471 527.328 339.232 527.328 247.654C527.328 156.075 453.102 81.8359 361.541 81.8359C269.979 81.8359 195.753 156.075 195.753 247.654C195.753 339.232 269.979 413.471 361.541 413.471Z" fill="#3F3D56"/>
<path d="M361.541 399.745C445.523 399.745 513.604 331.651 513.604 247.654C513.604 163.656 445.523 95.5625 361.541 95.5625C277.559 95.5625 209.478 163.656 209.478 247.654C209.478 331.651 277.559 399.745 361.541 399.745Z" fill="white"/>
<path d="M360.991 268.518C372.209 268.518 381.303 259.422 381.303 248.203C381.303 236.983 372.209 227.887 360.991 227.887C349.774 227.887 340.68 236.983 340.68 248.203C340.68 259.422 349.774 268.518 360.991 268.518Z" fill="#3F3D56"/>
<path d="M365.383 103.249H356.6V119.721H365.383V103.249Z" fill="#3F3D56"/>
<path d="M365.383 376.684H356.6V393.156H365.383V376.684Z" fill="#3F3D56"/>
<path d="M232.534 252.595V243.81H216.065V252.595H232.534Z" fill="#3F3D56"/>
<path d="M505.918 252.595V243.81H489.449V252.595H505.918Z" fill="#3F3D56"/>
<path d="M355.136 257.022L362.643 239.855L456.699 291.956L355.136 257.022Z" fill="#3F3D56"/>
<path d="M382.95 41.7541H340.131V91.17H382.95V41.7541Z" fill="#3F3D56"/>
<path d="M361.541 55.4807C388.827 55.4807 410.947 49.3351 410.947 41.7541C410.947 34.1731 388.827 28.0275 361.541 28.0275C334.254 28.0275 312.134 34.1731 312.134 41.7541C312.134 49.3351 334.254 55.4807 361.541 55.4807Z" fill="#3F3D56"/>
<path d="M454.041 277.029L451.296 280.872C451.296 280.872 438.67 295.697 438.121 288.559C437.572 281.421 447.454 276.479 447.454 276.479L452.943 273.185L454.041 277.029Z" fill="#FFB8B8"/>
<path d="M532.184 289.996L534.482 294.122C534.482 294.122 542.475 311.88 535.79 309.321C529.105 306.763 528.868 295.716 528.868 295.716L528.241 289.343L532.184 289.996Z" fill="#FFB8B8"/>
<path d="M519.826 216.833C529.057 216.833 536.541 209.348 536.541 200.114C536.541 190.881 529.057 183.395 519.826 183.395C510.594 183.395 503.11 190.881 503.11 200.114C503.11 209.348 510.594 216.833 519.826 216.833Z" fill="#2F2E41"/>
<path d="M518.27 337.426L520.466 351.701V356.094H533.092V350.603C533.092 350.603 533.641 340.72 531.445 337.975C529.249 335.229 518.27 337.426 518.27 337.426Z" fill="#FFB8B8"/>
<path d="M495.762 337.426L497.958 351.701V356.094H510.584V350.603C510.584 350.603 511.133 340.72 508.937 337.975C506.741 335.229 495.762 337.426 495.762 337.426Z" fill="#FFB8B8"/>
<path d="M504.259 222.755C504.259 222.755 499.403 225.315 502.72 231.138C506.037 236.962 525.498 297.21 525.498 297.21L536.726 294.022L526.824 255.919L521.155 231.972L504.259 222.755Z" fill="#201462"/>
<path d="M517.995 217.455C524.969 217.455 530.622 211.801 530.622 204.826C530.622 197.852 524.969 192.198 517.995 192.198C511.022 192.198 505.369 197.852 505.369 204.826C505.369 211.801 511.022 217.455 517.995 217.455Z" fill="#FFB8B8"/>
<path d="M523.76 206.748L522.113 232.554L510.584 224.318C510.584 224.318 514.427 208.944 513.329 207.846L523.76 206.748Z" fill="#FFB8B8"/>
<path d="M523.759 230.358L511.34 221.16C511.34 221.16 505.644 218.828 503.997 221.573C502.35 224.318 494.115 264.949 498.507 272.636C498.507 272.636 522.112 277.578 527.053 274.832L529.249 260.557C529.249 260.557 531.994 251.772 527.602 246.281L523.759 230.358Z" fill="#201462"/>
<path d="M507.29 222.122C507.29 222.122 502.899 218.828 499.056 224.318C495.213 229.809 449.1 273.185 449.1 273.185L456.786 281.97L486.979 256.713L506.192 241.339L507.29 222.122Z" fill="#201462"/>
<path d="M527.328 274.558C527.328 274.558 500.154 269.342 497.409 273.185L496.86 279.225C496.86 279.225 490.822 290.755 494.115 309.423C497.409 328.092 495.213 339.622 495.213 339.622C495.213 339.622 510.035 337.975 521.015 339.622C531.994 341.269 533.641 339.622 533.641 339.622L527.328 274.558Z" fill="#2F2E41"/>
<path d="M534.19 353.898L518.27 354.447L523.76 395.627C523.76 395.627 519.368 413.197 524.309 414.295C527.743 414.988 531.235 415.356 534.739 415.393C534.739 415.393 539.68 420.335 545.169 419.785C548.815 419.32 552.348 418.204 555.6 416.491C555.6 416.491 556.697 413.197 552.855 412.099C549.012 411 538.582 407.706 536.386 396.176L534.19 353.898Z" fill="#2F2E41"/>
<path d="M511.682 353.898L495.762 354.447L501.252 395.627C501.252 395.627 496.86 413.197 501.801 414.295C505.235 414.988 508.728 415.356 512.231 415.393C512.231 415.393 517.172 420.335 522.661 419.785C526.307 419.32 529.84 418.204 533.092 416.491C533.092 416.491 534.19 413.197 530.347 412.099C526.504 411 516.074 407.706 513.878 396.176L511.682 353.898Z" fill="#2F2E41"/>
<path d="M525.673 189.436C529.493 189.436 532.59 186.338 532.59 182.518C532.59 178.697 529.493 175.6 525.673 175.6C521.853 175.6 518.756 178.697 518.756 182.518C518.756 186.338 521.853 189.436 525.673 189.436Z" fill="#2F2E41"/>
<path d="M534.896 178.77C534.895 177.06 534.262 175.411 533.118 174.14C531.974 172.87 530.4 172.068 528.699 171.89C528.939 171.865 529.179 171.852 529.42 171.852C531.254 171.852 533.013 172.581 534.311 173.879C535.608 175.176 536.337 176.936 536.337 178.77C536.337 180.605 535.608 182.365 534.311 183.662C533.013 184.96 531.254 185.688 529.42 185.688C529.179 185.688 528.939 185.676 528.699 185.651C530.4 185.473 531.974 184.671 533.118 183.4C534.262 182.13 534.895 180.48 534.896 178.77Z" fill="#2F2E41"/>
<path d="M517.881 203.487C524.248 203.487 529.409 200.39 529.409 196.569C529.409 192.748 524.248 189.651 517.881 189.651C511.514 189.651 506.353 192.748 506.353 196.569C506.353 200.39 511.514 203.487 517.881 203.487Z" fill="#2F2E41"/>
<path d="M699.46 33.2033C698.989 24.8763 695.577 16.9871 689.831 10.9424C684.086 4.89768 676.381 1.09037 668.09 0.199255C659.798 -0.691857 651.46 1.39116 644.562 6.07692C637.664 10.7627 632.653 17.7466 630.424 25.7835C629.998 25.7682 629.572 25.7511 629.142 25.7511C621.54 25.7525 614.143 28.2156 608.057 32.772C601.972 37.3285 597.525 43.7332 595.381 51.0281C590.344 48.8144 584.715 48.3341 579.375 49.6625C574.036 50.9908 569.288 54.0529 565.875 58.369H675.633C678.835 58.3781 682.006 57.7408 684.956 56.4953C687.906 55.2499 690.574 53.4218 692.801 51.1207C695.028 48.8195 696.768 46.0926 697.916 43.1031C699.065 40.1135 699.599 36.923 699.485 33.7224C699.478 33.5496 699.47 33.3766 699.46 33.2033Z" fill="#E6E6E6"/>
<path d="M607.703 107.27C612.923 107.27 617.154 103.038 617.154 97.8174C617.154 92.5968 612.923 88.3647 607.703 88.3647C602.484 88.3647 598.252 92.5968 598.252 97.8174C598.252 103.038 602.484 107.27 607.703 107.27Z" fill="#E6E6E6"/>
<path d="M636.24 83.4017C640.586 83.4017 644.109 79.8778 644.109 75.5309C644.109 71.1841 640.586 67.6602 636.24 67.6602C631.894 67.6602 628.371 71.1841 628.371 75.5309C628.371 79.8778 631.894 83.4017 636.24 83.4017Z" fill="#E6E6E6"/>
<path d="M674.647 127.751C679.867 127.751 684.098 123.519 684.098 118.298C684.098 113.078 679.867 108.845 674.647 108.845C669.428 108.845 665.196 113.078 665.196 118.298C665.196 123.519 669.428 127.751 674.647 127.751Z" fill="#E6E6E6"/>
<path d="M602.978 171.075C608.198 171.075 612.429 166.843 612.429 161.623C612.429 156.402 608.198 152.17 602.978 152.17C597.759 152.17 593.527 156.402 593.527 161.623C593.527 166.843 597.759 171.075 602.978 171.075Z" fill="#E6E6E6"/>
<path d="M674.647 225.428C679.867 225.428 684.098 221.196 684.098 215.975C684.098 210.755 679.867 206.523 674.647 206.523C669.428 206.523 665.196 210.755 665.196 215.975C665.196 221.196 669.428 225.428 674.647 225.428Z" fill="#E6E6E6"/>
<path d="M659.668 398.244C659.671 398.142 659.684 398.042 659.684 397.938C659.686 396.354 659.29 394.795 658.531 393.405C657.773 392.014 656.677 390.837 655.345 389.981C654.012 389.126 652.486 388.619 650.906 388.509C649.326 388.398 647.744 388.687 646.305 389.348C644.955 387.79 643.131 386.717 641.112 386.294C639.094 385.872 636.993 386.123 635.131 387.009C633.269 387.896 631.749 389.368 630.804 391.201C629.859 393.034 629.541 395.127 629.899 397.158C629.851 397.157 629.804 397.151 629.756 397.151C628.251 397.148 626.768 397.505 625.429 398.192C624.09 398.878 622.935 399.875 622.058 401.098C621.182 402.321 620.61 403.736 620.391 405.225C620.172 406.713 620.311 408.233 620.797 409.657C621.283 411.081 622.102 412.369 623.186 413.412C624.27 414.456 625.587 415.226 627.028 415.658C628.469 416.09 629.993 416.171 631.472 415.896C632.951 415.62 634.343 414.995 635.532 414.073C636.282 415.535 637.401 416.776 638.777 417.673C640.153 418.571 641.739 419.093 643.379 419.19C645.019 419.287 646.656 418.954 648.128 418.225C649.6 417.496 650.856 416.395 651.773 415.032C652.898 415.85 654.189 416.41 655.555 416.671C656.921 416.933 658.328 416.889 659.675 416.543C661.022 416.198 662.276 415.559 663.348 414.672C664.419 413.786 665.282 412.673 665.874 411.415C666.466 410.156 666.772 408.782 666.772 407.391C666.771 406 666.464 404.626 665.871 403.368C665.278 402.11 664.415 400.998 663.342 400.113C662.27 399.227 661.016 398.589 659.668 398.244Z" fill="#E6E6E6"/>
<path d="M683.311 182.103C685.486 182.103 687.249 180.34 687.249 178.165C687.249 175.989 685.486 174.226 683.311 174.226C681.136 174.226 679.373 175.989 679.373 178.165C679.373 180.34 681.136 182.103 683.311 182.103Z" fill="#E6E6E6"/>
<path d="M658.108 87.577C660.283 87.577 662.046 85.8136 662.046 83.6384C662.046 81.4632 660.283 79.6998 658.108 79.6998C655.933 79.6998 654.17 81.4632 654.17 83.6384C654.17 85.8136 655.933 87.577 658.108 87.577Z" fill="#E6E6E6"/>
<path d="M644.72 185.254C646.894 185.254 648.657 183.491 648.657 181.316C648.657 179.14 646.894 177.377 644.72 177.377C642.545 177.377 640.782 179.14 640.782 181.316C640.782 183.491 642.545 185.254 644.72 185.254Z" fill="#E6E6E6"/>
<path d="M647.87 181.316C650.045 181.316 651.808 179.552 651.808 177.377C651.808 175.202 650.045 173.438 647.87 173.438C645.695 173.438 643.932 175.202 643.932 177.377C643.932 179.552 645.695 181.316 647.87 181.316Z" fill="#E6E6E6"/>
<path d="M650.232 177.377C652.407 177.377 654.17 175.614 654.17 173.438C654.17 171.263 652.407 169.5 650.232 169.5C648.057 169.5 646.294 171.263 646.294 173.438C646.294 175.614 648.057 177.377 650.232 177.377Z" fill="#E6E6E6"/>
<path d="M640.782 210.461C642.956 210.461 644.719 208.698 644.719 206.523C644.719 204.347 642.956 202.584 640.782 202.584C638.607 202.584 636.844 204.347 636.844 206.523C636.844 208.698 638.607 210.461 640.782 210.461Z" fill="#E6E6E6"/>
<path d="M699.062 254.573C701.237 254.573 703 252.81 703 250.635C703 248.46 701.237 246.696 699.062 246.696C696.887 246.696 695.124 248.46 695.124 250.635C695.124 252.81 696.887 254.573 699.062 254.573Z" fill="#E6E6E6"/>
<path d="M614.792 256.937C616.967 256.937 618.73 255.173 618.73 252.998C618.73 250.823 616.967 249.059 614.792 249.059C612.617 249.059 610.854 250.823 610.854 252.998C610.854 255.173 612.617 256.937 614.792 256.937Z" fill="#E6E6E6"/>
<path d="M619.517 135.628C621.692 135.628 623.455 133.864 623.455 131.689C623.455 129.514 621.692 127.751 619.517 127.751C617.342 127.751 615.579 129.514 615.579 131.689C615.579 133.864 617.342 135.628 619.517 135.628Z" fill="#E6E6E6"/>
<path d="M637.631 206.523C639.806 206.523 641.569 204.759 641.569 202.584C641.569 200.409 639.806 198.645 637.631 198.645C635.456 198.645 633.693 200.409 633.693 202.584C633.693 204.759 635.456 206.523 637.631 206.523Z" fill="#E6E6E6"/>
<path d="M633.694 200.221C635.869 200.221 637.632 198.457 637.632 196.282C637.632 194.107 635.869 192.344 633.694 192.344C631.519 192.344 629.756 194.107 629.756 196.282C629.756 198.457 631.519 200.221 633.694 200.221Z" fill="#E6E6E6"/>
</g>
<defs>
<clipPath id="clip0">
<rect width="703" height="426" fill="white"/>
</clipPath>
</defs>
</svg>
