<?xml version="1.0" encoding="utf-8"?>
<!-- Generator: Adobe Illustrator 24.0.1, SVG Export Plug-In . SVG Version: 6.00 Build 0)  -->
<svg version="1.1" xmlns="http://www.w3.org/2000/svg" xmlns:xlink="http://www.w3.org/1999/xlink" x="0px" y="0px"
	 viewBox="0 0 4000 4000" style="enable-background:new 0 0 4000 4000;" xml:space="preserve">
<style type="text/css">
	.st0{fill:#FFFFFF;}
	.st2{fill: none;}
</style>
<g id="Calque_2">
	<rect x="4709.27" class="st0" width="4000" height="4000"/>
	<rect y="4709.27" class="st1" width="4000" height="4000"/>
	<rect class="st2" width="4000" height="4000"/>
</g>
<g id="Calque_1">
	<g>
		<path class="st2" d="M8257.1,2163.47c-32.31-86.33-80.88-166.51-144.01-236.16c-122.04-134.64-288.43-219.14-468.38-237.93
			c-22.72-2.38-45.91-3.72-69.06-3.98c-146.57-275.57-420.73-472.99-743.71-513.42V976.01h171.68V729.75h-171.68V533.79h171.68
			V287.53h-589.61v246.26h171.68v638.19c-322.97,40.42-597.13,237.84-743.71,513.42c-23.15,0.25-46.32,1.59-68.94,3.97
			c-180.06,18.81-346.46,103.31-468.5,237.95c-122.95,135.64-190.65,311.22-190.65,494.42c0,99.36,19.49,195.8,57.92,286.67
			c37.09,87.69,90.17,166.43,157.76,234.02c67.59,67.59,146.33,120.67,234.02,157.76c90.87,38.43,187.31,57.92,286.67,57.92
			c88.48,0,176.06-15.95,258.23-46.67l15.28,15.28l585.04,585.04l585.04-585.04l15.28-15.28c82.17,30.72,169.75,46.67,258.23,46.67
			c99.36,0,195.8-19.49,286.67-57.92c87.69-37.09,166.43-90.17,234.02-157.76c67.59-67.59,120.67-146.33,157.76-234.02
			c38.44-90.87,57.92-187.31,57.92-286.67C8303.74,2332.59,8287.72,2245.26,8257.1,2163.47z M6092.71,2847.79
			c-57.39,32.75-121.15,53.44-186.93,60.92c-18.38,2.09-36.91,3.14-55.51,3.14c-270.25,0-490.11-219.87-490.11-490.11
			c0-18.77,1.05-37.31,3.1-55.55c25.35-226.46,204.04-407.73,435.47-431.89c16.89-1.78,34.23-2.68,51.55-2.68
			c270.26,0,490.13,219.87,490.13,490.13C6340.4,2597.37,6245.5,2760.63,6092.71,2847.79z M7567.37,2911.84
			c-18.6,0-37.13-1.05-55.51-3.14c-65.79-7.48-129.54-28.16-186.96-60.93c-152.76-87.15-247.66-250.4-247.66-426.05
			c0-270.26,219.87-490.13,490.13-490.13c17.32,0,34.66,0.91,51.66,2.7c231.33,24.15,410,205.42,435.35,431.88
			c2.05,18.24,3.1,36.78,3.1,55.55C8057.49,2691.97,7837.62,2911.84,7567.37,2911.84z"/>
		<g>
			<path class="st2" d="M6141.59,2421.71c0,77.82-30.3,150.97-85.32,206c-55.03,55.02-128.18,85.32-206,85.32
				c-77.8,0-150.96-30.3-205.99-85.32c-55.02-55.03-85.32-128.18-85.32-206c0-77.8,30.3-150.95,85.32-205.99
				c55.03-55.02,128.18-85.32,205.99-85.32c77.82,0,150.97,30.3,206,85.32C6111.29,2270.76,6141.59,2343.91,6141.59,2421.71z"/>
		</g>
		<g>
			<path class="st2" d="M7858.68,2421.71c0,77.82-30.3,150.97-85.32,206c-55.03,55.02-128.18,85.32-205.99,85.32
				c-77.82,0-150.97-30.3-206-85.32c-55.02-55.03-85.32-128.18-85.32-206c0-77.8,30.3-150.95,85.32-205.99
				c55.03-55.02,128.18-85.32,206-85.32c77.8,0,150.96,30.3,205.99,85.32C7828.38,2270.76,7858.68,2343.91,7858.68,2421.71z"/>
		</g>
	</g>
	<g>
		<path class="st0" d="M3547.82,6872.74c-32.31-86.33-80.88-166.51-144.01-236.16c-122.04-134.64-288.43-219.14-468.38-237.94
			c-22.72-2.38-45.91-3.72-69.06-3.98c-146.57-275.57-420.73-472.99-743.71-513.42v-195.97h171.68v-246.26h-171.68v-195.97h171.68
			V4996.8h-589.61v246.26h171.68v638.19c-322.97,40.42-597.13,237.84-743.71,513.42c-23.15,0.25-46.32,1.59-68.94,3.97
			c-180.06,18.81-346.46,103.31-468.5,237.95C472.33,6772.22,404.62,6947.8,404.62,7131c0,99.36,19.49,195.8,57.92,286.67
			c37.09,87.69,90.17,166.43,157.76,234.02c67.59,67.59,146.33,120.67,234.02,157.76c90.87,38.43,187.31,57.92,286.67,57.92
			c88.48,0,176.06-15.95,258.23-46.67l15.28,15.28l585.04,585.04l585.04-585.04l15.28-15.28c82.17,30.72,169.75,46.67,258.23,46.67
			c99.36,0,195.8-19.49,286.67-57.92c87.69-37.09,166.43-90.17,234.02-157.76c67.59-67.59,120.67-146.33,157.76-234.02
			c38.44-90.87,57.92-187.31,57.92-286.67C3594.47,7041.87,3578.45,6954.54,3547.82,6872.74z M1383.44,7557.06
			c-57.39,32.75-121.15,53.44-186.93,60.92c-18.38,2.09-36.91,3.14-55.51,3.14c-270.25,0-490.11-219.87-490.11-490.11
			c0-18.77,1.05-37.31,3.1-55.55c25.35-226.46,204.04-407.74,435.47-431.89c16.89-1.78,34.23-2.68,51.55-2.68
			c270.26,0,490.13,219.87,490.13,490.13C1631.12,7306.65,1536.22,7469.9,1383.44,7557.06z M2858.1,7621.11
			c-18.6,0-37.13-1.05-55.51-3.14c-65.79-7.48-129.54-28.16-186.96-60.93c-152.76-87.15-247.66-250.4-247.66-426.05
			c0-270.26,219.87-490.13,490.13-490.13c17.32,0,34.66,0.91,51.66,2.7c231.32,24.15,410,205.42,435.35,431.88
			c2.05,18.24,3.1,36.78,3.1,55.55C3348.21,7401.25,3128.34,7621.11,2858.1,7621.11z"/>
		<g>
			<path class="st0" d="M1432.31,7130.99c0,77.82-30.3,150.97-85.32,206c-55.03,55.02-128.18,85.32-206,85.32
				c-77.8,0-150.95-30.3-205.99-85.32c-55.02-55.03-85.32-128.18-85.32-206c0-77.8,30.3-150.96,85.32-205.99
				c55.03-55.02,128.18-85.32,205.99-85.32c77.82,0,150.97,30.3,206,85.32C1402.01,6980.03,1432.31,7053.18,1432.31,7130.99z"/>
		</g>
		<g>
			<path class="st0" d="M3149.4,7130.99c0,77.82-30.3,150.97-85.32,206c-55.03,55.02-128.18,85.32-205.99,85.32
				c-77.82,0-150.97-30.3-206-85.32c-55.02-55.03-85.32-128.18-85.32-206c0-77.8,30.3-150.96,85.32-205.99
				c55.03-55.02,128.18-85.32,206-85.32c77.8,0,150.96,30.3,205.99,85.32C3119.1,6980.03,3149.4,7053.18,3149.4,7130.99z"/>
		</g>
	</g>
	<g>
		<path class="st0" d="M3547.82,2163.47c-32.31-86.33-80.88-166.51-144.01-236.16c-122.04-134.64-288.43-219.14-468.38-237.93
			c-22.72-2.38-45.91-3.72-69.06-3.98c-146.57-275.57-420.73-472.99-743.71-513.42V976.01h171.68V729.75h-171.68V533.79h171.68
			V287.53h-589.61v246.26h171.68v638.19c-322.97,40.42-597.13,237.84-743.71,513.42c-23.15,0.25-46.32,1.59-68.94,3.97
			c-180.06,18.81-346.46,103.31-468.5,237.95c-122.95,135.64-190.65,311.22-190.65,494.42c0,99.36,19.49,195.8,57.92,286.67
			c37.09,87.69,90.17,166.43,157.76,234.02c67.59,67.59,146.33,120.67,234.02,157.76c90.87,38.43,187.31,57.92,286.67,57.92
			c88.48,0,176.06-15.95,258.23-46.67l15.28,15.28l585.04,585.04l585.04-585.04l15.28-15.28c82.17,30.72,169.75,46.67,258.23,46.67
			c99.36,0,195.8-19.49,286.67-57.92c87.69-37.09,166.43-90.17,234.02-157.76c67.59-67.59,120.67-146.33,157.76-234.02
			c38.44-90.87,57.92-187.31,57.92-286.67C3594.47,2332.59,3578.45,2245.26,3547.82,2163.47z M1383.44,2847.79
			c-57.39,32.75-121.15,53.44-186.93,60.92c-18.38,2.09-36.91,3.14-55.51,3.14c-270.25,0-490.11-219.87-490.11-490.11
			c0-18.77,1.05-37.31,3.1-55.55c25.35-226.46,204.04-407.73,435.47-431.89c16.89-1.78,34.23-2.68,51.55-2.68
			c270.26,0,490.13,219.87,490.13,490.13C1631.12,2597.37,1536.22,2760.63,1383.44,2847.79z M2858.1,2911.84
			c-18.6,0-37.13-1.05-55.51-3.14c-65.79-7.48-129.54-28.16-186.96-60.93c-152.76-87.15-247.66-250.4-247.66-426.05
			c0-270.26,219.87-490.13,490.13-490.13c17.32,0,34.66,0.91,51.66,2.7c231.32,24.15,410,205.42,435.35,431.88
			c2.05,18.24,3.1,36.78,3.1,55.55C3348.21,2691.97,3128.34,2911.84,2858.1,2911.84z"/>
		<g>
			<path class="st0" d="M1432.31,2421.71c0,77.82-30.3,150.97-85.32,206c-55.03,55.02-128.18,85.32-206,85.32
				c-77.8,0-150.95-30.3-205.99-85.32c-55.02-55.03-85.32-128.18-85.32-206c0-77.8,30.3-150.95,85.32-205.99
				c55.03-55.02,128.18-85.32,205.99-85.32c77.82,0,150.97,30.3,206,85.32C1402.01,2270.76,1432.31,2343.91,1432.31,2421.71z"/>
		</g>
		<g>
			<path class="st0" d="M3149.4,2421.71c0,77.82-30.3,150.97-85.32,206c-55.03,55.02-128.18,85.32-205.99,85.32
				c-77.82,0-150.97-30.3-206-85.32c-55.02-55.03-85.32-128.18-85.32-206c0-77.8,30.3-150.95,85.32-205.99
				c55.03-55.02,128.18-85.32,206-85.32c77.8,0,150.96,30.3,205.99,85.32C3119.1,2270.76,3149.4,2343.91,3149.4,2421.71z"/>
		</g>
	</g>
</g>
</svg>
