<svg width="460" height="500" viewBox="0 0 460 500" fill="none" xmlns="http://www.w3.org/2000/svg">
    <path fill-rule="evenodd" clip-rule="evenodd" d="M195.099 0.272263C247.939 4.66473 265.242 75.5451 308.737 105.842C353.694 137.157 426.94 129.926 451.503 178.873C476.029 227.744 441.337 284.555 424.533 336.584C407.69 388.733 400.077 450.88 354.033 480.656C308.427 510.15 246.939 501.194 195.099 484.961C152.215 471.532 129.513 428.486 95.1243 399.581C64.1559 373.551 17.3742 362.296 3.83123 324.194C-9.78268 285.893 16.4631 246.787 26.8464 207.488C38.0323 165.153 39.2268 119.738 66.837 85.7333C100.024 44.8607 142.601 -4.09173 195.099 0.272263Z" fill="#4D3DF7" fill-opacity="0.11"/>
    <path d="M102.889 363C148.115 363 184.778 360.215 184.778 356.78C184.778 353.344 148.115 350.559 102.889 350.559C57.663 350.559 21 353.344 21 356.78C21 360.215 57.663 363 102.889 363Z" fill="#E6E6E6"/>
    <path d="M83.5945 140.458C97.8456 134.396 115.596 138.237 132.931 140.903C133.092 137.675 135.047 133.745 132.999 131.493C130.511 128.757 130.74 125.882 132.237 122.99C136.066 115.595 130.58 107.727 125.041 101.185C123.793 99.7136 122.215 98.5576 120.436 97.8108C118.657 97.0639 116.726 96.7473 114.802 96.8867L104.541 97.6197C102.044 97.7981 99.6617 98.7349 97.7117 100.305C95.7617 101.875 94.3376 104.003 93.6299 106.404C91.1798 109.737 89.8685 113.06 90.6941 116.366C87.0243 118.875 86.4078 121.902 88.0568 125.316C89.4552 127.465 89.4403 129.557 87.9932 131.591C86.0928 134.184 84.6372 137.076 83.6862 140.147L83.5945 140.458Z" fill="#2F2E41"/>
    <path d="M422.261 324.242H131.805C129.222 324.242 126.745 323.216 124.918 321.389C123.092 319.563 122.066 317.085 122.066 314.502C227.356 302.263 330.667 302.263 432 314.502C432 317.085 430.974 319.563 429.148 321.389C427.321 323.216 424.844 324.242 422.261 324.242Z" fill="#2F2E41"/>
    <path d="M432 315.075L122.066 314.502L157.986 254.052L158.158 253.765V120.541C158.158 118.924 158.476 117.323 159.095 115.829C159.713 114.335 160.62 112.977 161.763 111.834C162.907 110.69 164.264 109.783 165.758 109.165C167.251 108.546 168.852 108.227 170.469 108.228H381.878C383.495 108.227 385.096 108.546 386.589 109.165C388.083 109.783 389.44 110.69 390.584 111.834C391.727 112.977 392.634 114.335 393.252 115.829C393.871 117.323 394.189 118.924 394.189 120.541V254.682L432 315.075Z" fill="#3F3D56"/>
    <path d="M170.188 116.822C169.125 116.824 168.106 117.247 167.354 117.998C166.602 118.75 166.179 119.77 166.178 120.833V242.306C166.179 243.369 166.602 244.389 167.354 245.141C168.106 245.892 169.125 246.315 170.188 246.317H383.877C384.94 246.315 385.96 245.892 386.711 245.14C387.463 244.389 387.886 243.369 387.887 242.306V120.833C387.886 119.77 387.463 118.75 386.711 117.998C385.96 117.247 384.94 116.824 383.877 116.822H170.188Z" fill="white"/>
    <path d="M171.084 262.36C170.755 262.361 170.434 262.455 170.157 262.632C169.88 262.81 169.66 263.062 169.522 263.361L158.454 287.426C158.334 287.688 158.281 287.976 158.301 288.263C158.321 288.551 158.413 288.829 158.568 289.072C158.724 289.314 158.938 289.514 159.191 289.653C159.444 289.791 159.727 289.863 160.015 289.863H392.773C393.066 289.863 393.354 289.788 393.61 289.646C393.866 289.503 394.081 289.297 394.235 289.048C394.389 288.799 394.477 288.514 394.49 288.222C394.503 287.929 394.441 287.638 394.31 287.376L382.279 263.31C382.137 263.024 381.918 262.784 381.646 262.616C381.375 262.448 381.062 262.359 380.742 262.36H171.084Z" fill="#2F2E41"/>
    <path d="M276.173 114.817C277.597 114.817 278.751 113.663 278.751 112.238C278.751 110.814 277.597 109.66 276.173 109.66C274.75 109.66 273.595 110.814 273.595 112.238C273.595 113.663 274.75 114.817 276.173 114.817Z" fill="white"/>
    <path d="M253.295 294.447C252.917 294.448 252.55 294.573 252.25 294.802C251.95 295.032 251.735 295.354 251.636 295.719L248.859 306.033C248.791 306.288 248.782 306.555 248.833 306.814C248.884 307.072 248.994 307.316 249.155 307.525C249.315 307.735 249.522 307.905 249.758 308.021C249.995 308.138 250.255 308.199 250.519 308.199H303.319C303.593 308.199 303.863 308.133 304.106 308.008C304.35 307.882 304.56 307.7 304.719 307.477C304.877 307.254 304.981 306.996 305.02 306.724C305.058 306.453 305.032 306.177 304.942 305.918L301.373 295.604C301.256 295.266 301.037 294.973 300.745 294.766C300.454 294.559 300.106 294.447 299.749 294.447H253.295Z" fill="#2F2E41"/>
    <path d="M394.189 251.76V254.052H157.986L158.164 253.766V251.76H394.189Z" fill="#2F2E41"/>
    <path d="M387.601 157.218C409.749 157.218 427.703 139.26 427.703 117.109C427.703 94.9573 409.749 77 387.601 77C365.453 77 347.499 94.9573 347.499 117.109C347.499 139.26 365.453 157.218 387.601 157.218Z" fill="#4D3DF7"/>
    <path d="M404.215 134.585H370.987C370.38 134.584 369.797 134.343 369.367 133.913C368.938 133.483 368.696 132.901 368.696 132.293V112.238C368.696 111.631 368.938 111.048 369.367 110.619C369.797 110.189 370.38 109.947 370.987 109.947H404.215C404.822 109.947 405.405 110.189 405.835 110.619C406.264 111.048 406.506 111.631 406.506 112.238V132.293C406.506 132.901 406.264 133.483 405.835 133.913C405.405 134.343 404.822 134.584 404.215 134.585ZM370.987 112.239V132.293H404.217L404.215 112.238L370.987 112.239Z" fill="white"/>
    <path d="M397.913 112.238H377.289V103.071C377.289 96.4305 381.626 91.6111 387.601 91.6111C393.576 91.6111 397.913 96.4305 397.913 103.071L397.913 112.238ZM379.58 109.947H395.621V103.071C395.621 97.673 392.323 93.903 387.601 93.903C382.878 93.903 379.58 97.673 379.58 103.071L379.58 109.947Z" fill="white"/>
    <path d="M387.601 123.985C388.866 123.985 389.892 122.959 389.892 121.693C389.892 120.427 388.866 119.401 387.601 119.401C386.335 119.401 385.309 120.427 385.309 121.693C385.309 122.959 386.335 123.985 387.601 123.985Z" fill="white"/>
    <path d="M359.606 205.114H194.46C193.649 205.113 192.871 204.791 192.298 204.217C191.725 203.644 191.402 202.867 191.401 202.056V161.083C191.402 160.272 191.725 159.495 192.298 158.922C192.871 158.348 193.649 158.026 194.46 158.025H359.606C360.417 158.026 361.194 158.348 361.767 158.922C362.341 159.495 362.663 160.272 362.664 161.083V202.056C362.663 202.867 362.341 203.644 361.767 204.217C361.194 204.791 360.417 205.113 359.606 205.114ZM194.46 159.248C193.973 159.249 193.507 159.442 193.163 159.786C192.819 160.13 192.625 160.597 192.625 161.083V202.056C192.625 202.542 192.819 203.009 193.163 203.353C193.507 203.697 193.973 203.89 194.46 203.891H359.606C360.092 203.89 360.559 203.697 360.903 203.353C361.247 203.009 361.44 202.542 361.441 202.056V161.083C361.44 160.597 361.247 160.13 360.903 159.786C360.559 159.442 360.092 159.249 359.606 159.248L194.46 159.248Z" fill="#E6E6E6"/>
    <path d="M220.12 192.457C227 192.457 232.578 186.879 232.578 179.997C232.578 173.116 227 167.538 220.12 167.538C213.24 167.538 207.662 173.116 207.662 179.997C207.662 186.879 213.24 192.457 220.12 192.457Z" fill="#E6E6E6"/>
    <path d="M248.891 171.691C248.618 171.69 248.348 171.744 248.096 171.848C247.843 171.952 247.614 172.105 247.421 172.298C247.228 172.491 247.075 172.72 246.97 172.972C246.866 173.224 246.812 173.495 246.812 173.768C246.812 174.041 246.866 174.311 246.97 174.563C247.075 174.815 247.228 175.044 247.421 175.237C247.614 175.43 247.843 175.583 248.096 175.687C248.348 175.791 248.618 175.845 248.891 175.844H346.773C347.324 175.844 347.852 175.625 348.242 175.236C348.631 174.846 348.85 174.318 348.85 173.768C348.85 173.217 348.631 172.689 348.242 172.299C347.852 171.91 347.324 171.691 346.773 171.691H248.891Z" fill="#E6E6E6"/>
    <path d="M248.891 184.151C248.341 184.151 247.813 184.369 247.423 184.759C247.034 185.148 246.815 185.677 246.815 186.227C246.815 186.778 247.034 187.306 247.423 187.696C247.813 188.085 248.341 188.304 248.891 188.304H291.01C291.561 188.304 292.089 188.085 292.479 187.696C292.868 187.306 293.087 186.778 293.087 186.227C293.087 185.677 292.868 185.148 292.479 184.759C292.089 184.369 291.561 184.151 291.01 184.151H248.891Z" fill="#E6E6E6"/>
    <path d="M157.58 184.991L127.051 201.224L126.665 187.696C136.629 186.033 146.109 183.136 154.875 178.42L158.067 170.531C158.415 169.671 158.981 168.916 159.708 168.341C160.436 167.766 161.3 167.39 162.217 167.25C163.134 167.11 164.071 167.211 164.937 167.543C165.803 167.875 166.568 168.426 167.156 169.142C168.017 170.191 168.448 171.528 168.36 172.882C168.273 174.236 167.674 175.506 166.685 176.435L157.58 184.991Z" fill="#FFB8B8"/>
    <path d="M82.9859 278.714C82.7632 277.897 82.7159 277.042 82.8472 276.206C82.9784 275.369 83.2852 274.57 83.7474 273.86L90.4537 263.567C92.0399 261.132 94.4737 259.374 97.2831 258.632C100.092 257.891 103.077 258.22 105.658 259.555C102.839 264.353 103.232 268.563 106.631 272.221C101.355 274.797 96.4779 278.122 92.1521 282.093C91.3624 282.631 90.4555 282.973 89.5069 283.09C88.5583 283.207 87.5955 283.096 86.6987 282.765C85.8019 282.435 84.9971 281.894 84.3513 281.19C83.7055 280.485 83.2373 279.636 82.9859 278.714Z" fill="#2F2E41"/>
    <path d="M158.97 265.255C157.955 266.947 156.523 268.349 154.81 269.327C153.097 270.306 151.162 270.828 149.189 270.842L104.637 271.18L102.705 259.972L122.414 254.174L105.797 241.42L123.959 220.162L156.948 250.914C158.876 252.711 160.129 255.116 160.497 257.727C160.865 260.337 160.326 262.994 158.97 265.255Z" fill="#2F2E41"/>
    <path d="M97.6818 341.909H87.248C77.8799 277.685 68.3442 213.281 96.5225 189.242L129.756 194.653L125.505 222.868L106.956 244.125L97.6818 341.909Z" fill="#2F2E41"/>
    <path d="M106.853 356.458C106.037 356.681 105.182 356.728 104.346 356.597C103.509 356.466 102.71 356.159 102.001 355.697L90.6717 354.174C88.2373 352.588 86.4789 350.153 85.7375 347.344C84.9962 344.534 85.3248 341.549 86.6597 338.968C91.4573 341.786 95.6659 341.393 99.3232 337.994C101.907 343.212 106.165 342.894 110.231 347.29C110.77 348.08 111.112 348.987 111.229 349.936C111.346 350.885 111.234 351.848 110.904 352.745C110.573 353.642 110.033 354.447 109.329 355.093C108.624 355.739 107.776 356.207 106.853 356.458Z" fill="#2F2E41"/>
    <path d="M122.414 146.341L103.092 141.703C106.301 135.133 106.565 127.823 105.024 120.059L118.163 119.672C118.575 129.327 119.82 138.347 122.414 146.341Z" fill="#FFB8B8"/>
    <path d="M127.724 206.29C113.658 215.877 103.72 206.618 96.1358 192.334C97.1897 183.594 95.4833 173.134 92.3229 161.768C90.9174 156.755 91.4422 151.397 93.7936 146.752C96.1449 142.107 100.152 138.513 105.024 136.678L121.641 143.635C135.75 155.138 138.527 167.598 133.234 180.739L127.724 206.29Z" fill="#4D3DF7"/>
    <path d="M87.2477 156.003L71.7902 164.12L99.2273 180.353L103.045 189.771C103.3 190.4 103.424 191.074 103.41 191.752C103.396 192.43 103.244 193.098 102.963 193.716C102.682 194.333 102.279 194.887 101.777 195.344C101.275 195.8 100.686 196.149 100.045 196.37C99.3157 196.622 98.5385 196.701 97.774 196.602C97.0094 196.503 96.2782 196.228 95.6376 195.799C94.997 195.37 94.4643 194.798 94.0814 194.129C93.6985 193.46 93.4756 192.711 93.4304 191.941L93.0443 185.377L58.1721 173.868C56.9972 173.48 55.9259 172.83 55.0394 171.966C54.1528 171.103 53.4743 170.05 53.0553 168.885C52.4444 167.188 52.4133 165.336 52.9668 163.62C53.5204 161.903 54.6273 160.418 56.1145 159.398L84.1562 140.157L87.2477 156.003Z" fill="#FFB8B8"/>
    <path d="M102.705 157.549C96.2585 154.724 90.3963 157.793 82.997 160.255L81.8376 139.77C89.1849 135.854 96.19 134.798 102.705 137.838L102.705 157.549Z" fill="#4D3DF7"/>
    <path d="M110.417 129.819C117.23 129.819 122.753 124.295 122.753 117.481C122.753 110.666 117.23 105.142 110.417 105.142C103.604 105.142 98.0808 110.666 98.0808 117.481C98.0808 124.295 103.604 129.819 110.417 129.819Z" fill="#FFB8B8"/>
    <path d="M125.175 115.924C112.961 117.12 103.654 115.122 97.7061 109.434V104.853H124.139L125.175 115.924Z" fill="#2F2E41"/>
</svg>
