<svg width="463" height="297" viewBox="0 0 463 297" fill="none" xmlns="http://www.w3.org/2000/svg">
    <g clip-path="url(#clip0)">
        <path opacity="0.1" d="M460.1 204.663C455.454 216.046 445.735 226.327 435.301 236.064C426.129 244.625 416.319 252.898 405.869 260.882C402.973 263.099 400.031 265.287 397.042 267.448L394.966 268.94C393.125 270.267 391.253 271.582 389.35 272.884L389.121 273.042C387.275 274.322 385.413 275.589 383.534 276.844C377.387 280.959 370.889 285.044 363.707 288.427C361.259 289.582 358.735 290.658 356.12 291.622C354.706 292.146 353.262 292.636 351.789 293.093C349.374 293.841 346.894 294.494 344.304 295.03C343.872 295.121 343.435 295.209 342.999 295.292C340.348 295.799 337.664 296.169 334.952 296.422C325.012 297.349 314.745 296.672 304.789 295.084C299.813 294.29 294.914 293.268 290.175 292.104C289.592 291.963 289.012 291.818 288.429 291.689C272.29 287.575 257.137 281.989 240.883 278.062C235.282 276.707 229.571 275.558 223.752 274.613C220.914 274.153 218.058 273.737 215.187 273.366C208.428 272.51 201.584 271.937 194.712 271.646C185.445 271.23 175.876 271.409 167.058 273.059C165.883 273.277 164.723 273.524 163.579 273.798C162.126 274.145 160.702 274.539 159.304 274.983C155.536 276.223 151.869 277.761 148.336 279.583C147.639 279.932 146.949 280.285 146.26 280.643C144.098 281.765 141.965 282.912 139.799 284.026C135.901 286.104 131.845 287.858 127.669 289.27C125.382 290.006 123.056 290.611 120.703 291.082C114.474 292.354 107.846 292.857 101.19 292.89C97.9799 292.89 94.7658 292.819 91.5884 292.649H91.4906C90.4056 292.591 89.3166 292.524 88.2275 292.441C83.2678 292.096 78.3243 291.564 73.4543 290.837C56.7681 288.343 40.9425 283.631 28.2127 276.441C10.9229 266.684 -0.0571371 252.134 1.59068 237.598C2.77352 227.125 10.1194 217.401 17.09 207.88C30.0563 190.151 42.2029 172.02 48.5943 152.908C53.7784 137.394 55.3242 120.991 67.2546 107.049C71.0764 102.586 75.9627 98.513 81.6526 94.9432C85.9056 92.2902 90.3635 89.9942 94.982 88.0779C100.202 85.8995 105.572 84.1147 111.048 82.7378C115.795 81.538 120.604 80.6167 125.454 79.9783C128.089 79.6293 130.757 79.3591 133.441 79.1763C135.507 79.0295 137.583 78.9366 139.669 78.8979H139.991C141.266 78.8729 142.542 78.8729 143.817 78.8979C153.116 79.0445 162.389 79.9324 171.552 81.5534C177.287 82.53 182.973 83.7268 188.54 85.0442C191.863 85.8283 195.156 86.6497 198.419 87.5086C199.414 87.7704 200.41 88.0363 201.393 88.3065C224.609 94.644 245.035 103.396 267.403 110.577C267.517 110.615 267.628 110.652 267.742 110.681C272.333 112.119 276.994 113.312 281.707 114.255C285.17 114.961 288.711 115.572 292.312 116.108C297.827 116.94 303.459 117.596 309.133 118.161L310.385 118.286C318.71 119.117 327.108 119.736 335.266 120.459C338.162 120.717 341.033 120.983 343.864 121.291C345.658 121.473 347.437 121.667 349.199 121.872C350.463 122.022 351.732 122.172 353 122.33C354.269 122.488 355.61 122.654 356.916 122.824C357.764 122.932 358.608 123.044 359.457 123.165C364.596 123.859 369.723 124.636 374.793 125.525C377.876 126.066 380.944 126.647 383.974 127.275C386.168 127.729 388.344 128.209 390.5 128.713C392.099 129.081 393.684 129.469 395.256 129.876C408.027 133.147 419.977 137.436 430.276 143.225C457.021 158.223 468.988 182.895 460.1 204.663Z" fill="#1F28CF"/>
        <path opacity="0.1" d="M101.557 38.1549C106.429 38.1549 110.379 34.1304 110.379 29.166C110.379 24.2016 106.429 20.1771 101.557 20.1771C96.6845 20.1771 92.7346 24.2016 92.7346 29.166C92.7346 34.1304 96.6845 38.1549 101.557 38.1549Z" fill="#1F28CF"/>
        <path opacity="0.1" d="M281.883 18.5647C286.755 18.5647 290.705 14.5402 290.705 9.5758C290.705 4.61137 286.755 0.586914 281.883 0.586914C277.01 0.586914 273.061 4.61137 273.061 9.5758C273.061 14.5402 277.01 18.5647 281.883 18.5647Z" fill="#1F28CF"/>
        <path opacity="0.1" d="M388.807 38.6951C393.68 38.6951 397.63 34.6707 397.63 29.7062C397.63 24.7418 393.68 20.7173 388.807 20.7173C383.935 20.7173 379.985 24.7418 379.985 29.7062C379.985 34.6707 383.935 38.6951 388.807 38.6951Z" fill="#1F28CF"/>
        <path opacity="0.1" d="M14.7855 65.9776C22.9513 65.9776 29.571 59.233 29.571 50.913C29.571 42.5931 22.9513 35.8484 14.7855 35.8484C6.61969 35.8484 0 42.5931 0 50.913C0 59.233 6.61969 65.9776 14.7855 65.9776Z" fill="#1F28CF"/>
        <path opacity="0.1" d="M28.9592 140.366C37.125 140.366 43.7447 133.621 43.7447 125.301C43.7447 116.981 37.125 110.236 28.9592 110.236C20.7934 110.236 14.1737 116.981 14.1737 125.301C14.1737 133.621 20.7934 140.366 28.9592 140.366Z" fill="#1F28CF"/>
        <path opacity="0.1" d="M425.79 112.983C433.955 112.983 440.575 106.239 440.575 97.9187C440.575 89.5988 433.955 82.8541 425.79 82.8541C417.624 82.8541 411.004 89.5988 411.004 97.9187C411.004 106.239 417.624 112.983 425.79 112.983Z" fill="#1F28CF"/>
        <path d="M144.531 100.055C144.604 101.32 144.531 102.589 144.315 103.837C143.499 107.697 140.048 110.349 136.708 112.36C133.367 114.371 129.696 116.275 127.71 119.67C125.316 123.772 126.078 129.286 128.889 133.118C131.699 136.95 136.153 139.231 140.737 140.183C149.099 141.941 158.256 139.472 164.525 133.571C170.794 127.67 173.939 118.448 172.401 109.883C168.999 110.369 165.969 107.311 164.867 103.994C163.766 100.678 163.995 97.0834 163.566 93.6051C163.535 93.0169 163.361 92.4458 163.06 91.9428C162.583 91.2695 161.739 90.9952 160.952 90.775C157.02 89.6737 150.404 87.2634 146.329 88.186C142.659 89.042 144.47 96.913 144.531 100.055Z" fill="#BE6F72"/>
        <path opacity="0.1" d="M144.531 100.055C144.604 101.32 144.531 102.589 144.315 103.837C143.499 107.697 140.048 110.349 136.708 112.36C133.367 114.371 129.696 116.275 127.71 119.67C125.316 123.772 126.078 129.286 128.889 133.118C131.699 136.95 136.153 139.231 140.737 140.183C149.099 141.941 158.256 139.472 164.525 133.571C170.794 127.67 173.939 118.448 172.401 109.883C168.999 110.369 165.969 107.311 164.867 103.994C163.766 100.678 163.995 97.0834 163.566 93.6051C163.535 93.0169 163.361 92.4458 163.06 91.9428C162.583 91.2695 161.739 90.9952 160.952 90.775C157.02 89.6737 150.404 87.2634 146.329 88.186C142.659 89.042 144.47 96.913 144.531 100.055Z" fill="black"/>
        <path d="M139.779 284.034C135.881 286.113 131.824 287.867 127.649 289.278C125.362 290.015 123.036 290.619 120.682 291.09C120.516 287.895 120.687 284.69 121.192 281.532C121.51 279.716 121.979 277.917 122.102 276.076C122.275 273.418 121.717 270.764 120.491 268.413C125.034 267.781 129.35 266.75 133.914 267.054L134.203 267.074C134.746 267.088 135.283 267.191 135.794 267.378C136.496 267.724 137.093 268.258 137.519 268.924C137.754 269.25 137.971 269.59 138.168 269.942C139.457 272.211 139.946 274.829 140.048 277.526C140.096 279.699 140.006 281.873 139.779 284.034Z" fill="#BE6F72"/>
        <path d="M163.562 273.802C162.11 274.149 160.685 274.544 159.288 274.987C155.52 276.227 151.853 277.765 148.32 279.587C148.09 278.455 147.978 277.302 147.985 276.146C150.067 274.684 152.416 273.662 154.893 273.143C157.37 272.624 159.924 272.618 162.404 273.125C162.735 273.166 163.05 273.295 163.317 273.499C163.414 273.586 163.497 273.689 163.562 273.802Z" fill="#BE6F72"/>
        <path d="M170.574 252.824C170.296 255.542 169.888 258.268 168.942 260.824C167.918 263.567 166.254 266.227 166.466 269.156C166.56 270.428 166.984 271.808 167.045 273.067C165.871 273.286 164.711 273.532 163.566 273.807C162.114 274.153 160.689 274.548 159.292 274.991C155.524 276.231 151.857 277.77 148.324 279.591C147.627 279.941 146.937 280.294 146.248 280.651C145.962 280.614 145.681 280.568 145.395 280.514C143.356 280.136 141.211 279.205 140.056 277.543C139.792 277.16 139.585 276.74 139.44 276.296C138.776 274.272 139.469 271.75 138.086 270.145L138.021 270.204L137.972 270.237C137.215 270.936 136.383 271.546 135.492 272.057C133.465 273.226 131.219 273.948 128.9 274.176C126.581 274.403 124.241 274.132 122.032 273.379C121.157 273.075 120.312 272.688 119.508 272.223C117.639 271.139 115.837 269.314 115.984 267.137C116.065 265.923 116.746 264.76 116.563 263.559C116.428 262.698 115.873 261.984 115.457 261.223C112.729 256.236 115.984 249.824 114.27 244.405C114.23 244.276 114.185 244.147 114.14 244.022C114.013 243.669 113.871 243.328 113.732 242.988C113.381 242.194 112.99 241.413 112.68 240.598C112.422 239.913 112.217 239.209 112.068 238.491C111.683 236.407 111.546 234.283 111.66 232.166C111.66 226.585 112.639 220.871 114.034 215.493C114.283 214.537 114.56 213.187 114.927 211.716C115.285 210.165 115.768 208.647 116.371 207.178C117.187 205.266 118.296 203.741 119.813 203.379C122.098 202.835 125.589 203.986 127.906 204.269L137.063 205.382L155.372 207.614C158.533 208 161.853 208.445 164.46 210.257C164.631 210.377 164.798 210.502 164.965 210.635C165.654 211.188 166.271 211.827 166.801 212.538C166.988 212.784 167.168 213.041 167.339 213.303C167.933 214.23 168.439 215.212 168.848 216.237C171.12 221.797 171.173 228.002 171.189 234.024C171.189 240.307 171.21 246.587 170.574 252.824Z" fill="#3F3D56"/>
        <path opacity="0.1" d="M135.472 272.082C134.921 269.921 133.759 266.792 133.587 265.94C133.013 263.082 132.596 260.193 132.339 257.288C131.887 252.11 131.071 244.82 132.865 239.896C134.55 240.81 136.031 243.399 136.81 245.165C139.632 251.569 136.455 259.432 139.106 265.911C139.304 266.299 139.427 266.722 139.469 267.157C139.423 267.71 139.228 268.239 138.906 268.687L138.013 270.199L135.472 272.082Z" fill="black"/>
        <path d="M194.214 74.3764C197.216 69.3895 201.327 64.4857 201.07 58.6552C200.977 56.5773 200.308 54.5452 199.798 52.5089C198.337 46.6154 198.24 40.4565 199.516 34.5186C204.56 33.693 209.723 34.8711 213.939 37.81C215.273 38.7492 216.537 39.9169 217.124 41.4587C217.667 42.88 217.577 44.4633 217.479 45.9843C217.255 49.4793 216.949 53.207 214.836 55.9581C214.18 56.8184 213.372 57.5456 212.732 58.4142C211.798 59.6609 211.251 61.1819 210.717 62.6655L203.783 81.8859C200.283 91.5729 196.49 101.705 188.781 108.408C188.594 108.57 183.071 100.578 182.614 99.7764C180.766 96.4892 181.574 95.1011 183.809 92.35C188.218 86.9102 190.612 80.3482 194.214 74.3764Z" fill="#BE6F72"/>
        <path d="M114.752 238.2C114.728 239.635 114.61 241.066 114.397 242.485C114.324 243.008 114.238 243.528 114.136 244.047C112.745 251.445 109.282 258.48 106.859 265.686C103.666 275.199 102.263 283.452 101.149 292.898C97.9391 292.898 94.7251 292.828 91.5477 292.657H91.4498C90.3649 292.599 89.2759 292.532 88.1868 292.449C89.1698 283.639 87.3711 274.397 89.129 265.578C89.8387 262.029 91.0501 258.584 91.7802 255.052C92.0053 254.012 92.1755 252.96 92.2901 251.902C92.392 250.896 92.4451 249.853 92.8896 248.947C92.9303 248.859 92.9766 248.775 93.0283 248.693C93.4189 248.066 93.9033 247.506 94.464 247.031C99.4338 242.591 105.512 239.638 112.027 238.499C112.953 238.371 113.854 238.263 114.752 238.2Z" fill="#FBBEBE"/>
        <path opacity="0.1" d="M114.752 238.2C114.728 239.635 114.61 241.066 114.397 242.485C114.324 243.008 114.238 243.528 114.136 244.047C112.745 251.445 109.282 258.48 106.859 265.686C103.666 275.199 102.263 283.452 101.149 292.898C97.9391 292.898 94.7251 292.828 91.5477 292.657H91.4498C90.3649 292.599 89.2759 292.532 88.1868 292.449C89.1698 283.639 87.3711 274.397 89.129 265.578C89.8387 262.029 91.0501 258.584 91.7802 255.052C92.0053 254.012 92.1755 252.96 92.2901 251.902C92.392 250.896 92.4451 249.853 92.8896 248.947C92.9303 248.859 92.9766 248.775 93.0283 248.693C93.4189 248.066 93.9033 247.506 94.464 247.031C99.4338 242.591 105.512 239.638 112.027 238.499C112.953 238.371 113.854 238.263 114.752 238.2Z" fill="black"/>
        <path d="M94.0724 257.138C94.0064 259.447 93.8199 261.751 93.5136 264.041C92.4246 273.395 92.2206 283.157 91.4742 292.653C90.3893 292.595 89.3003 292.528 88.2112 292.445C83.2515 292.1 78.308 291.568 73.438 290.841C73.8132 288.702 74.1912 286.563 74.5719 284.425C75.0369 281.802 75.5018 279.155 75.3672 276.495C75.2408 273.981 74.58 271.533 74.0539 269.069C72.9322 263.791 72.3041 258.098 70.4564 253.119C69.4928 250.327 67.9548 247.777 65.9453 245.639C73.5889 242.58 80.9347 242.406 89.1453 242.73C89.7282 242.697 90.3075 242.842 90.8094 243.146C91.1985 243.489 91.4877 243.935 91.6455 244.434C92.8793 247.458 93.6537 250.656 93.9419 253.917C94.04 254.988 94.0836 256.063 94.0724 257.138Z" fill="#FBBEBE"/>
        <path d="M155.641 97.9104C164.427 97.9104 171.548 90.6541 171.548 81.703C171.548 72.7519 164.427 65.4956 155.641 65.4956C146.856 65.4956 139.734 72.7519 139.734 81.703C139.734 90.6541 146.856 97.9104 155.641 97.9104Z" fill="#BE6F72"/>
        <path d="M158.949 119.583C160.989 116.038 162.775 111.612 166.699 110.627C168.914 110.066 171.218 110.831 173.376 111.583C174.001 111.734 174.568 112.069 175.007 112.547C175.326 113.062 175.497 113.658 175.501 114.267C176.184 121.594 176.161 128.971 175.431 136.293C174.913 141.475 174.041 146.632 173.886 151.84C173.669 159.058 174.836 166.277 174.453 173.487C174.163 178.952 172.988 184.321 171.822 189.661L166.927 212.019C166.84 212.711 166.567 213.365 166.14 213.91C165.727 214.295 165.233 214.58 164.696 214.741C157.611 217.293 150.08 218.302 142.589 217.705C135.098 217.107 127.813 214.915 121.204 211.271C119.438 210.282 117.676 209.139 116.526 207.452C114.894 205.058 114.744 201.891 115.274 199.024C115.804 196.156 116.95 193.451 117.721 190.638C118.912 186.274 119.194 181.719 119.463 177.198C119.822 171.247 120.181 165.258 119.557 159.328C119.128 155.243 118.235 151.22 117.562 147.168C116.571 141.062 115.996 134.892 115.841 128.705C115.739 125.01 115.906 120.908 118.414 118.244C119.638 116.948 121.27 116.167 122.93 115.535C125.715 114.488 128.828 113.873 131.642 114.828C134.456 115.784 136.724 118.793 136.059 121.739C135.753 123.107 134.884 124.304 134.672 125.692C134.391 127.528 135.345 129.378 136.712 130.62C144.062 137.386 155.282 125.999 158.949 119.583Z" fill="#E3E8F4"/>
        <path d="M159.532 103.022C161.764 102.184 164.19 102.04 166.503 102.606C167.975 102.964 169.566 103.595 170.924 102.926C171.418 102.685 171.826 102.291 172.323 102.066C173.669 101.464 175.415 102.203 176.606 101.326C177.357 100.774 177.601 99.768 177.854 98.8538C179.079 94.4897 181.589 90.6137 185.045 87.7496C184.617 90.9371 184.307 94.565 186.375 97.0003C187.317 98.1057 188.638 98.7997 189.976 99.34C191.897 100.117 194.006 100.632 196.033 100.209C198.06 99.7847 199.957 98.2221 200.279 96.1401C200.21 99.2693 197.285 101.455 196.466 104.476C196.156 105.607 196.184 106.808 195.968 107.963C195.417 110.914 193.349 113.283 191.542 115.66C185.771 123.305 182.085 132.369 180.856 141.932C180.773 143.067 180.539 144.185 180.163 145.257C179.763 146.079 179.311 146.873 178.809 147.634C175.819 152.779 176.741 159.27 177.756 165.146C179.343 174.351 180.925 183.369 183.495 192.342C183.936 193.875 184.433 195.475 185.555 196.593C185.2 200.221 181.607 201.875 178.376 203.442C175.187 204.991 172.244 207.021 169.648 209.463C168.718 210.336 167.8 211.317 167.461 212.559C167.143 213.727 167.372 215.011 166.964 216.146C166.556 217.28 164.925 218.095 164.207 217.139C163.309 213.719 164.843 210.141 164.774 206.6C164.725 204.21 163.958 201.887 163.848 199.498C163.742 196.792 164.525 194.137 165.357 191.569C167.674 184.417 170.472 177.331 171.275 169.846C172.079 162.362 170.578 154.188 165.365 148.847C159.178 142.481 155.743 133.849 149.111 128.002C148.059 127.075 146.868 125.924 147.043 124.52C147.164 123.901 147.432 123.322 147.822 122.832C150.098 119.558 153.125 116.886 155.572 113.752C158.019 110.619 159.977 107.012 159.532 103.022Z" fill="#3F3D56"/>
        <path d="M137.756 109.725C137.348 110.141 137.067 110.714 136.593 111.072C136.041 111.419 135.411 111.618 134.762 111.649C132.362 112.021 129.941 112.241 127.514 112.31C125.475 112.31 123.358 112.127 121.396 112.697C118.659 113.486 116.473 115.689 115.103 118.224C113.732 120.759 113.084 123.626 112.557 126.481C111.398 132.771 110.777 139.152 110.702 145.552C114.064 142.82 117.06 139.652 119.614 136.127C121.571 133.421 123.346 130.429 126.14 128.621C127.424 127.79 128.868 127.242 130.161 126.431C132.857 124.74 134.725 122.005 136.52 119.367C137.842 117.409 141.663 113.586 141.965 111.242C142.222 109.002 139.183 107.909 137.756 109.725Z" fill="#3F3D56"/>
        <path d="M151.966 70.6071C152.47 70.9154 152.952 71.2583 153.41 71.6336C156.18 73.6034 159.887 73.2377 163.236 72.7889C164.264 72.6559 165.32 72.5063 166.201 71.9577C167.617 71.0684 168.281 69.2399 168.143 67.5485C168.004 65.8571 167.168 64.2987 166.148 62.9772C164.797 61.2283 163.112 59.7771 161.195 58.7113C159.277 57.6455 157.167 56.9874 154.993 56.7768C153.867 56.6264 152.722 56.7503 151.652 57.1383C150.335 57.6911 149.344 58.8297 148.128 59.5902C144.543 61.8343 139.02 60.837 136.708 64.4192C135.015 67.0623 136.222 70.6528 135.423 73.6907C134.827 75.9597 133.11 78.0251 133.441 80.3399C133.624 81.5866 134.391 82.6754 135.003 83.7892C136.408 86.3496 137.058 89.2687 136.875 92.1962C138.445 93.3266 140.636 91.5687 141.072 89.6654C141.508 87.7621 141.007 85.734 141.378 83.8141C142.035 80.4438 144.955 77.9711 146.272 74.8792C147.219 72.6642 148.76 68.924 151.966 70.6071Z" fill="#3F3D56"/>
        <path d="M113.398 107.498C113.275 108.254 113.198 109.089 113.61 109.729C114.425 110.976 116.294 110.527 117.762 110.714C120.05 111.001 121.739 113.208 122.183 115.527C122.628 117.846 122.098 120.206 121.518 122.483C120.208 127.645 118.647 132.733 116.836 137.747C111.966 137.161 106.839 135.254 104.253 131.019C101.904 127.167 102.144 122.259 100.651 117.987C99.6033 114.978 97.7229 112.36 95.863 109.792C98.8528 110.174 100.99 106.692 101.165 103.625C101.341 100.558 100.395 97.445 101.039 94.4487C101.19 93.738 112.973 95.978 114.12 96.7883C117.431 99.128 113.92 104.248 113.398 107.498Z" fill="#FBBEBE"/>
        <path opacity="0.1" d="M113.398 107.498C113.275 108.254 113.198 109.089 113.61 109.729C114.425 110.976 116.294 110.527 117.762 110.714C120.05 111.001 121.739 113.208 122.183 115.527C122.628 117.846 122.098 120.206 121.518 122.483C120.208 127.645 118.647 132.733 116.836 137.747C111.966 137.161 106.839 135.254 104.253 131.019C101.904 127.167 102.144 122.259 100.651 117.987C99.6033 114.978 97.7229 112.36 95.863 109.792C98.8528 110.174 100.99 106.692 101.165 103.625C101.341 100.558 100.395 97.445 101.039 94.4487C101.19 93.738 112.973 95.978 114.12 96.7883C117.431 99.128 113.92 104.248 113.398 107.498Z" fill="black"/>
        <path d="M110.775 102.482C119.56 102.482 126.682 95.2254 126.682 86.2743C126.682 77.3232 119.56 70.0669 110.775 70.0669C101.99 70.0669 94.8678 77.3232 94.8678 86.2743C94.8678 95.2254 101.99 102.482 110.775 102.482Z" fill="#FBBEBE"/>
        <path d="M105.876 105.171C106.456 104.248 105.468 102.96 105.921 101.966C106.19 101.368 106.872 101.11 107.398 100.72C108.058 100.173 108.584 99.4769 108.935 98.6875C111.412 93.8389 112.162 88.2652 111.056 82.9165C110.681 81.1212 110.347 78.7358 111.958 77.9296C112.404 77.7265 112.894 77.6408 113.381 77.6802C116.285 77.7758 119.091 79.7581 121.91 79.0558C122.872 78.7893 123.731 78.2298 124.373 77.4522C125.014 76.6747 125.407 75.7161 125.499 74.7047C125.683 72.0201 123.709 69.7178 121.767 67.91C118.272 64.6353 112.945 63.9081 108.197 63.8291L99.3666 63.6795C96.5401 63.6296 93.3709 63.721 91.4049 65.7865C88.5742 68.7578 89.9977 73.62 89.5899 77.7384C89.2431 81.0254 87.6293 84.0374 85.1032 86.1122C83.2719 87.6 80.7512 89.0212 80.7838 91.3983C80.7838 92.2295 81.1346 92.9858 81.3589 93.7713C82.2603 96.8798 81.3997 100.317 79.6703 103.039C77.9409 105.761 75.4121 107.855 72.7895 109.688C71.3864 110.664 69.9343 111.604 68.8249 112.929C67.6086 114.461 66.8864 116.337 66.757 118.303C66.5824 119.805 66.8855 121.324 67.6217 122.637C69.347 125.446 73.4869 125.858 76.3217 124.229C79.1564 122.6 80.8858 119.516 82.0319 116.416C82.7171 114.575 83.4146 112.468 85.1685 111.641C87.3873 110.59 89.9814 112.252 91.4253 114.267C92.8692 116.283 93.7583 118.743 95.606 120.381C98.5019 122.949 103.429 122.533 105.876 119.516C107.626 117.351 108.014 114.355 107.916 111.55C107.867 109.265 107.158 107.046 105.876 105.171Z" fill="#3F3D56"/>
        <path d="M111.587 126.294C109.772 126.689 107.875 125.816 106.525 124.511C105.175 123.206 104.265 121.523 103.319 119.894C100.92 115.785 98.1697 111.9 95.1003 108.283C92.4246 105.137 88.7007 101.941 84.728 102.914C83.3979 103.305 82.1637 103.978 81.1061 104.888C77.6033 107.714 74.8615 111.399 73.1373 115.598C71.4132 119.798 70.763 124.375 71.2477 128.9C71.5577 131.547 72.2633 134.136 72.557 136.796C72.7548 138.988 72.812 141.191 72.7283 143.391C72.6182 150.09 72.3939 157.176 68.8494 162.819C63.3553 171.546 60.4145 181.969 56.3807 191.494C54.2026 196.643 52.8974 202.124 51.6167 207.576C50.858 210.812 50.1007 214.047 49.3448 217.28L44.4095 238.433C43.8997 240.615 43.3898 242.9 43.9282 245.082C44.744 248.34 47.75 250.618 50.9192 251.544C54.0884 252.471 57.4452 252.313 60.7368 252.342C67.0344 252.405 73.3809 253.202 79.291 255.43C80.9796 256.066 82.6642 256.826 84.4629 256.976C86.2616 257.125 88.0522 256.648 89.7367 255.983C94.3335 254.171 98.2736 250.996 102.507 248.432C105.152 246.808 107.937 245.435 110.828 244.33C112.28 243.777 113.838 243.254 114.837 242.044C115.592 241.134 115.931 239.946 116.179 238.782C117.558 232.233 116.632 225.446 116.179 218.764C115.727 212.081 111.807 205.021 115.049 199.194C115.702 198.018 116.481 196.888 116.816 195.583C117.256 193.879 116.885 192.046 117.256 190.326C117.529 189.054 118.186 187.911 118.635 186.694C119.418 184.549 119.524 182.214 119.516 179.924C119.497 174.897 118.978 169.884 117.966 164.963C116.681 158.73 120.931 152.567 123.366 146.678C124.239 144.571 125.475 142.581 125.838 140.324C126.164 138.288 125.744 136.214 125.43 134.173C124.961 131.011 124.77 127.812 124.859 124.615C124.936 121.748 125.234 118.826 124.561 116.038C123.888 113.249 121.967 110.544 119.206 109.97C118.896 109.878 118.57 109.856 118.251 109.907C117.933 109.958 117.629 110.081 117.362 110.265C117.043 110.584 116.819 110.987 116.714 111.429C115.816 114.23 115.992 117.247 115.49 120.156C114.988 123.065 114.401 125.679 111.587 126.294Z" fill="#F86D70"/>
        <path d="M73.0954 144.143C73.2627 142.992 72.7365 141.463 71.5945 141.504C70.5421 141.546 70.0731 142.888 70.0772 143.964C70.0812 145.041 70.224 146.275 69.4776 147.031C68.8168 147.7 67.7237 147.68 66.9569 148.224C66.6863 148.421 66.4661 148.681 66.3149 148.982C66.1637 149.284 66.0859 149.618 66.0881 149.957C66.0881 150.535 66.3451 151.087 66.3614 151.665C66.3777 152.243 65.9984 152.912 65.4355 152.874C65.1464 153.369 65.0261 153.947 65.0932 154.518C65.1604 155.089 65.4112 155.622 65.8067 156.033C66.1004 156.324 66.4838 156.573 66.5817 156.98C66.6127 157.266 66.5905 157.555 66.5164 157.832C66.3451 158.975 67.1201 160.255 68.2499 160.38C67.6177 160.841 67.7441 161.921 68.3233 162.458C68.9025 162.994 69.7345 163.097 70.5136 163.097C72.2817 163.088 74.0302 162.719 75.6569 162.013C76.2139 161.826 76.7065 161.479 77.0763 161.015C77.2479 160.776 77.3302 160.483 77.3085 160.187C77.2868 159.892 77.1626 159.614 76.958 159.403C77.7493 159.536 78.6996 159.611 79.2176 158.987C79.9396 158.115 79.1646 156.822 78.4019 155.979C78.7182 155.931 79.0138 155.789 79.2518 155.572C79.4898 155.354 79.6598 155.07 79.7406 154.755C79.8214 154.439 79.8095 154.107 79.7064 153.798C79.6033 153.49 79.4135 153.219 79.1605 153.02C78.8995 152.824 78.5447 152.654 78.5079 152.326C78.4712 151.997 78.7445 151.786 78.8587 151.495C79.1198 150.842 78.5243 150.177 77.9492 149.782C76.5869 148.86 74.5801 148.877 73.3687 147.946C72.1573 147.015 72.9201 145.39 73.0954 144.143Z" fill="#BE6F72"/>
        <path d="M157.24 81.0838C156.252 81.1852 155.258 81.2088 154.267 81.1544C154.098 81.1356 153.928 81.1852 153.795 81.2924C153.661 81.3997 153.574 81.5561 153.553 81.7279L151.656 96.2232C151.51 97.2754 151.088 98.2677 150.433 99.0948C149.893 99.753 149.491 100.517 149.254 101.34C149.016 102.163 148.946 103.027 149.05 103.878V128.501C149.05 128.501 148.928 131.784 151.403 131.784C154.367 132.163 157.365 132.163 160.328 131.784C160.328 131.784 162.31 131.402 162.31 128.372V104.127C162.461 103.282 162.43 102.412 162.219 101.58C162.008 100.748 161.621 99.9719 161.086 99.3067C160.453 98.4767 160.044 97.4925 159.899 96.4517L157.929 81.6531C157.907 81.4867 157.823 81.3353 157.695 81.2295C157.567 81.1238 157.404 81.0717 157.24 81.0838Z" fill="#3F3D56"/>
        <path opacity="0.1" d="M157.24 81.0838C156.252 81.1852 155.258 81.2088 154.267 81.1544C154.098 81.1356 153.928 81.1852 153.795 81.2924C153.661 81.3997 153.574 81.5561 153.553 81.7279L151.656 96.2232C151.51 97.2754 151.088 98.2677 150.433 99.0948C149.893 99.753 149.491 100.517 149.254 101.34C149.016 102.163 148.946 103.027 149.05 103.878V128.501C149.05 128.501 148.928 131.784 151.403 131.784C154.367 132.163 157.365 132.163 160.328 131.784C160.328 131.784 162.31 131.402 162.31 128.372V104.127C162.461 103.282 162.43 102.412 162.219 101.58C162.008 100.748 161.621 99.9719 161.086 99.3067C160.453 98.4767 160.044 97.4925 159.899 96.4517L157.929 81.6531C157.907 81.4867 157.823 81.3353 157.695 81.2295C157.567 81.1238 157.404 81.0717 157.24 81.0838Z" fill="black"/>
        <path d="M157.252 104.319H154.246C151.757 104.319 149.739 106.375 149.739 108.911V120.435C149.739 122.971 151.757 125.027 154.246 125.027H157.252C159.742 125.027 161.759 122.971 161.759 120.435V108.911C161.759 106.375 159.742 104.319 157.252 104.319Z" fill="#1F28CF"/>
        <path d="M197.648 18.4483C196.777 18.9365 195.868 19.3534 194.932 19.695C194.77 19.7444 194.632 19.8561 194.55 20.0065C194.467 20.157 194.444 20.3344 194.487 20.5013L198.215 34.6308C198.482 35.6564 198.471 36.7364 198.183 37.7559C197.931 38.575 197.849 39.4381 197.94 40.2912C198.031 41.1443 198.294 41.969 198.713 42.7137L208.021 65.4374C208.021 65.4374 209.146 68.5126 211.435 67.5402C214.315 66.726 217.083 65.5447 219.674 64.0244C219.674 64.0244 221.358 62.8941 220.216 60.1014L211.051 37.7268C210.871 36.8868 210.514 36.0965 210.005 35.4107C209.495 34.7248 208.846 34.1595 208.102 33.7539C207.205 33.2368 206.456 32.4906 205.928 31.5888L198.517 18.706C198.433 18.557 198.296 18.4469 198.134 18.3988C197.972 18.3508 197.798 18.3685 197.648 18.4483Z" fill="#3F3D56"/>
        <path d="M206.449 39.8905L203.675 41.07C201.377 42.0467 200.292 44.7358 201.251 47.0764L205.606 57.7115C206.565 60.052 209.204 61.1577 211.502 60.181L214.276 59.0015C216.573 58.0248 217.658 55.3357 216.699 52.9952L212.344 42.3601C211.385 40.0195 208.746 38.9139 206.449 39.8905Z" fill="#1F28CF"/>
        <path d="M83.1862 105.599C78.8016 107.44 77.0681 113.166 78.0959 117.879C79.1238 122.591 82.2196 126.519 85.2379 130.255L93.6972 140.769C96.0343 143.678 98.5917 146.74 102.157 147.754C107.369 149.238 112.582 145.855 117.089 142.797C130.542 133.663 144.923 126.033 159.981 120.04C161.454 119.458 162.963 118.868 164.174 117.829C166.687 115.676 167.392 111.707 165.993 108.686C164.594 105.665 161.335 103.699 158.052 103.674C154.768 103.649 151.575 105.42 149.601 108.096C148.658 109.372 147.969 110.831 147.06 112.127C144.759 115.385 141.17 117.401 137.658 119.221C129.19 123.623 120.474 127.508 111.554 130.857C109.923 131.464 108.083 132.042 106.545 131.24C105.603 130.745 104.967 129.81 104.396 128.896C101.794 124.723 99.724 120.229 98.2368 115.522C97.1233 111.99 96.2219 108.142 93.5463 105.632C89.753 102.074 82.8844 102.926 80.0415 107.294C80.0415 107.294 76.7092 112.26 78.7486 114.338C80.7879 116.416 83.1862 105.599 83.1862 105.599Z" fill="#FBBEBE"/>
        <path d="M311.939 88.4021C312.535 90.0186 312.551 91.789 312.465 93.5136C312.359 95.6164 311.841 98.085 309.924 98.887C308.676 99.3982 307.134 99.0117 306.025 99.7847C304.679 100.716 304.744 102.719 304.952 104.356C305.527 108.857 306.176 113.524 308.582 117.33C309.875 119.371 311.625 121.07 313.399 122.695C316.936 125.945 320.815 129.12 325.46 130.205C326.217 130.422 327.013 130.456 327.785 130.304C328.546 130.065 329.237 129.637 329.796 129.058C332.488 126.539 333.875 122.945 335.669 119.687C336.938 117.355 338.451 115.115 339.165 112.547C339.753 110.303 339.714 107.936 339.052 105.714C338.391 103.491 337.133 101.501 335.421 99.9675C334.625 99.2735 333.744 98.6917 332.973 97.9727C330.958 96.111 329.784 93.4388 329.302 90.7127C328.821 87.9865 328.895 85.1813 329.127 82.4011C325.048 82.0812 320.998 82.584 317.017 83.3944C315.247 83.7559 312.755 83.9222 311.152 84.7824C309.349 85.759 311.446 87.0099 311.939 88.4021Z" fill="#FBBEBE"/>
        <path opacity="0.1" d="M311.939 88.4021C312.535 90.0186 312.551 91.789 312.465 93.5136C312.359 95.6164 311.841 98.085 309.924 98.887C308.676 99.3982 307.134 99.0117 306.025 99.7847C304.679 100.716 304.744 102.719 304.952 104.356C305.527 108.857 306.176 113.524 308.582 117.33C309.875 119.371 311.625 121.07 313.399 122.695C316.936 125.945 320.815 129.12 325.46 130.205C326.217 130.422 327.013 130.456 327.785 130.304C328.546 130.065 329.237 129.637 329.796 129.058C332.488 126.539 333.875 122.945 335.669 119.687C336.938 117.355 338.451 115.115 339.165 112.547C339.753 110.303 339.714 107.936 339.052 105.714C338.391 103.491 337.133 101.501 335.421 99.9675C334.625 99.2735 333.744 98.6917 332.973 97.9727C330.958 96.111 329.784 93.4388 329.302 90.7127C328.821 87.9865 328.895 85.1813 329.127 82.4011C325.048 82.0812 320.998 82.584 317.017 83.3944C315.247 83.7559 312.755 83.9222 311.152 84.7824C309.349 85.759 311.446 87.0099 311.939 88.4021Z" fill="black"/>
        <path d="M289.18 100.632C282.556 98.3177 279.391 89.2748 272.457 88.2608C271.364 88.0987 270.242 88.161 269.169 87.9034C265.176 86.9392 263.459 82.2349 262.305 78.2246C258.414 64.8556 253.332 51.7733 246.112 39.9211C243.065 34.9342 238.248 30.8366 236.05 25.376C235.544 24.1292 235.287 22.708 234.378 21.7231C233.468 20.7381 231.522 20.5968 231.029 21.8519C230.891 22.2964 230.861 22.7682 230.939 23.2274L231.416 28.4013L223.12 27.6408C222.353 27.5075 221.565 27.5645 220.824 27.8071C220.023 28.2152 219.385 28.8917 219.017 29.7229C216.211 35.0963 219.201 42.1361 224.152 45.5355C229.936 49.5042 238.195 50.1068 242.038 56.0288C244.322 59.5528 244.366 64.0868 245.872 68.0223C246.589 69.9048 247.638 71.6336 248.474 73.458C250.069 76.9363 250.884 80.7181 252.12 84.3419C253.89 89.5241 256.513 94.3531 259.127 99.153C261.142 102.86 263.206 106.633 266.306 109.468C268.345 111.329 270.744 112.709 273.142 114.039C279.04 117.322 285.994 120.48 292.243 117.962C292.602 112.285 291.203 105.956 289.18 100.632Z" fill="#FBBEBE"/>
        <path d="M309.292 279.529C308.79 284.952 305.56 289.864 304.805 295.084C299.829 294.29 294.931 293.268 290.191 292.104C289.608 291.963 289.029 291.818 288.446 291.689C291.129 284.208 288.792 275.831 289.502 267.864C289.571 267.099 289.669 266.335 289.8 265.578C295.946 263.442 301.498 260.591 307.942 261.423C308.068 262.752 308.199 264.086 308.325 265.416C308.584 268.073 308.839 270.727 309.092 273.379C309.351 275.418 309.418 277.477 309.292 279.529Z" fill="#FBBEBE"/>
        <path d="M351.801 293.094C349.386 293.842 346.906 294.494 344.316 295.03C343.884 295.122 343.448 295.209 343.011 295.292C340.36 295.799 337.676 296.169 334.964 296.422C334.686 290.646 330.885 285.335 330.33 279.404C330.217 277.931 330.232 276.45 330.375 274.979C330.424 274.397 330.481 273.815 330.534 273.233L331.684 261.277C332.6 261.16 333.523 261.114 334.446 261.14C339.748 261.269 344.573 263.608 349.827 265.433C350.218 267.955 350.355 270.512 350.235 273.063C350.035 279.554 349.011 286.124 351.377 292.08C351.511 292.416 351.658 292.753 351.801 293.094Z" fill="#FBBEBE"/>
        <path d="M282.951 201.941C283.665 207.61 280.822 213.037 279.591 218.61C278.775 222.296 278.665 226.09 278.555 229.872L277.91 252.525C277.845 254.79 277.788 257.096 278.465 259.27C279.827 263.625 284.024 266.567 288.393 267.615C292.761 268.662 297.329 268.13 301.779 267.532C303.961 267.236 306.237 266.892 308.044 265.607C310.528 263.841 311.613 260.695 312.551 257.761L315.198 249.479C318.245 256.469 316.956 264.111 318.783 271.529C318.901 272.215 319.181 272.861 319.599 273.412C320.37 274.285 321.638 274.422 322.793 274.505C330.787 275.078 338.892 275.648 346.755 274.089C348.917 273.674 351.173 273 352.666 271.347C354.403 269.422 354.705 266.592 354.685 263.978C354.574 254.998 351.389 246.333 350.679 237.382C350.373 233.546 350.524 229.689 350.39 225.841C350.284 222.947 350.018 220.061 349.594 217.197C349.46 215.885 349.106 214.606 348.55 213.415C347.326 211.088 344.785 209.825 342.379 208.844C323.682 201.106 303.117 201.181 282.951 201.941Z" fill="#F86D70"/>
        <path d="M317.568 90.43C327.254 90.43 335.107 82.4295 335.107 72.5603C335.107 62.6912 327.254 54.6906 317.568 54.6906C307.882 54.6906 300.029 62.6912 300.029 72.5603C300.029 82.4295 307.882 90.43 317.568 90.43Z" fill="#FBBEBE"/>
        <path d="M332.855 104.036C331.554 106.945 329.506 109.854 326.459 110.594C323.657 111.279 320.688 109.904 318.624 107.855C316.56 105.806 315.21 103.147 313.779 100.599C312.734 98.7374 311.572 96.859 309.806 95.6871C307.391 94.0913 304.275 94.1328 301.428 94.6024C298.581 95.072 295.755 95.9115 292.863 95.7203C289.261 95.4752 285.59 93.6425 282.193 94.8643C283.294 99.8844 282.898 105.403 282.772 110.548C282.793 111.342 282.683 112.135 282.446 112.892C282.149 113.598 281.749 114.254 281.259 114.837L277.996 119.121C281.495 121.789 284.522 125.272 285.745 129.548C286.435 131.983 286.223 134.568 286.198 137.103C286.121 144.546 287.707 151.96 287.206 159.386C286.618 168.084 283.208 176.304 281.45 184.836C279.945 192.16 279.661 199.691 280.61 207.111C298.891 213.557 317.727 216.856 337.052 217.937C340.466 218.128 344.153 218.157 346.955 216.158C349.284 214.496 350.589 211.649 351.034 208.782C351.479 205.914 351.173 202.997 350.863 200.113C350.022 192.314 349.184 184.515 348.346 176.716C347.869 172.278 347.392 167.814 347.702 163.363C347.934 160.039 348.603 156.777 349.268 153.523L353.347 133.55C353.93 130.712 354.517 127.853 355.672 125.205C356.618 123.044 357.927 121.05 358.971 118.947C360.216 116.425 361.074 113.725 361.516 110.939C361.694 110.13 361.682 109.29 361.484 108.487C361.047 107.124 359.714 106.305 358.47 105.636C350.884 101.574 342.754 98.6687 334.34 97.0128C333.769 99.4605 333.879 101.754 332.855 104.036Z" fill="#E3E8F4"/>
        <path d="M331.162 92.0674C333.202 88.0862 337.015 85.2936 339.23 81.4038C340.454 79.1985 341.139 76.7252 341.225 74.1932C341.312 71.6613 340.798 69.1454 339.728 66.8586C338.949 65.2379 337.892 63.7501 337.281 62.0546C336.599 60.1263 336.534 58.0027 335.747 56.116C334.666 53.5312 332.325 51.6694 329.776 50.5972C327.226 49.525 324.473 49.1385 321.728 48.7645L312.461 47.4928C311.119 47.31 309.729 47.1271 308.423 47.4928C307.118 47.8586 305.903 48.9432 305.797 50.3229C305.67 51.9561 307.077 53.4771 306.751 55.0813C306.633 55.6464 306.306 56.2199 306.494 56.7685C306.661 57.1349 306.95 57.4293 307.31 57.5996C309.508 58.8464 312.135 58.9586 314.517 59.7731C316.899 60.5876 319.289 62.6322 319.049 65.1756C318.918 66.5428 318.053 67.9641 318.641 69.19C319.204 70.3245 320.68 70.5323 321.859 70.8856C325.672 72.0118 328.348 76.2257 327.793 80.236C327.622 81.4827 327.182 82.6754 327.092 83.9263C326.794 88.3065 327.471 89.5574 330.983 92.1048L331.162 92.0674Z" fill="#3F3D56"/>
        <path d="M354.986 111.009C355.005 111.839 354.857 112.663 354.55 113.432C353.277 116.196 349.382 116.021 346.8 117.588C343.586 119.541 342.877 123.9 342.583 127.699C342.248 132 342.02 136.364 342.885 140.582C343.749 144.8 345.83 148.914 349.305 151.387C353.534 154.383 359.285 154.487 364.115 152.662C368.944 150.838 372.978 147.31 376.477 143.453C379.797 139.796 382.771 135.719 384.553 131.077C384.867 130.246 385.145 129.365 384.892 128.534C384.513 127.287 383.179 126.722 382.094 126.041C379.561 124.482 377.872 121.764 376.995 118.893C376.118 116.021 375.972 112.967 375.943 109.954C375.91 106.825 375.902 103.404 373.944 100.99C371.987 98.5753 368.593 97.8979 365.501 97.9229C362.973 97.9229 355.973 98.1681 354.248 100.416C352.833 102.286 355.088 108.333 354.986 111.009Z" fill="#BE6F72"/>
        <path opacity="0.1" d="M354.986 111.009C355.005 111.839 354.857 112.663 354.55 113.432C353.277 116.196 349.382 116.021 346.8 117.588C343.586 119.541 342.877 123.9 342.583 127.699C342.248 132 342.02 136.364 342.885 140.582C343.749 144.8 345.83 148.914 349.305 151.387C353.534 154.383 359.285 154.487 364.115 152.662C368.944 150.838 372.978 147.31 376.477 143.453C379.797 139.796 382.771 135.719 384.553 131.077C384.867 130.246 385.145 129.365 384.892 128.534C384.513 127.287 383.179 126.722 382.094 126.041C379.561 124.482 377.872 121.764 376.995 118.893C376.118 116.021 375.972 112.967 375.943 109.954C375.91 106.825 375.902 103.404 373.944 100.99C371.987 98.5753 368.593 97.8979 365.501 97.9229C362.973 97.9229 355.973 98.1681 354.248 100.416C352.833 102.286 355.088 108.333 354.986 111.009Z" fill="black"/>
        <path d="M333.238 222.458C333.365 223.092 333.658 223.678 334.087 224.154C334.49 224.478 334.96 224.704 335.461 224.815C348.848 228.817 363.148 227.221 377.008 225.588C375.111 219.703 373.202 213.752 372.676 207.581C372.239 202.49 372.729 197.191 370.959 192.416C370.437 191.003 340.009 197.507 337.007 198.035C335.469 198.305 333.699 198.214 332.61 199.456C331.297 200.961 331.187 204.543 331.048 206.417C330.657 211.832 331.754 217.284 333.238 222.458Z" fill="#BE6F72"/>
        <path d="M363.719 288.427C361.272 289.582 358.747 290.658 356.132 291.622C354.719 292.146 353.275 292.636 351.801 293.094C349.386 293.842 346.906 294.494 344.316 295.03C342.84 291.215 341.362 287.399 339.883 283.581C338.794 280.772 337.705 277.95 336.795 275.078C336.162 273.117 335.642 271.121 335.237 269.098C333.902 262.224 334.249 255.12 336.249 248.415C341.902 249.5 347.428 250.206 352.996 251.029C355.969 251.445 358.951 251.935 361.969 252.513C362.206 254.516 362.421 256.519 362.614 258.522C362.907 261.614 363.148 264.706 363.336 267.797C363.752 274.668 363.879 281.545 363.719 288.427Z" fill="#BE6F72"/>
        <path opacity="0.1" d="M363.719 288.427C361.272 289.582 358.747 290.658 356.132 291.622C354.719 292.146 353.275 292.636 351.801 293.094C349.386 293.842 346.906 294.494 344.316 295.03C342.84 291.215 341.362 287.399 339.883 283.581C338.794 280.772 337.705 277.95 336.795 275.078C336.162 273.117 335.642 271.121 335.237 269.098C333.902 262.224 334.249 255.12 336.249 248.415C341.902 249.5 347.428 250.206 352.996 251.029C355.969 251.445 358.951 251.935 361.969 252.513C362.206 254.516 362.421 256.519 362.614 258.522C362.907 261.614 363.148 264.706 363.336 267.797C363.752 274.668 363.879 281.545 363.719 288.427Z" fill="black"/>
        <path d="M395.085 270.42C395.117 272.813 394.448 275.257 393.828 277.605C393.784 277.771 393.743 277.933 393.702 278.1C392.227 277.632 390.955 276.66 390.1 275.348C389.659 274.637 389.333 273.859 389.134 273.042C387.287 274.322 385.425 275.589 383.546 276.845C377.399 280.959 370.902 285.044 363.719 288.427C361.272 289.582 358.747 290.658 356.133 291.622C355.589 289.683 355.072 287.731 354.583 285.767C354.048 283.745 353.628 281.692 353.326 279.621C352.729 274.915 353.192 270.132 354.68 265.636L354.864 265.096C355.557 263.097 356.452 261.176 357.536 259.365C358.551 257.703 360.562 257.982 362.614 258.534C363.544 258.779 364.486 259.075 365.342 259.257C370.673 260.396 376.208 259.22 381.657 259.532C384.254 259.664 386.799 260.324 389.142 261.472C391.765 262.815 393.877 264.868 394.705 267.706C394.823 268.115 394.913 268.531 394.975 268.953C395.043 269.439 395.08 269.929 395.085 270.42Z" fill="#BE6F72"/>
        <path d="M296.958 79.0267C288.535 70.7152 278.962 63.6712 269.169 57.0843C266.621 55.456 264.17 53.6756 261.828 51.7525C259.38 49.6746 257.247 47.2352 254.649 45.3651C252.051 43.495 248.837 42.2109 245.717 42.8259C242.596 43.441 239.823 46.483 240.28 49.6663C240.687 52.4673 243.159 54.3872 245.443 55.9955C249.767 59.0417 254.111 62.0962 258.813 64.4857C260.447 65.2403 262.032 66.1009 263.557 67.0623C266.486 69.0737 268.619 72.0492 270.834 74.846C279.193 85.4254 289.432 94.3071 301.016 101.027C301.155 101.11 305.98 90.5007 305.776 89.1252C305.328 85.9626 299.177 81.2209 296.958 79.0267Z" fill="#BE6F72"/>
        <path d="M368.997 213.324C362.495 213.739 356.259 215.975 349.9 217.401C343.541 218.826 336.632 219.379 330.73 216.57L334.319 241.541C334.519 242.929 334.727 244.351 334.429 245.718C334.156 247.023 333.446 248.253 333.508 249.587C333.601 251.698 335.547 253.182 337.378 254.158C342.699 257.02 348.659 258.42 354.672 258.218C354.228 260.047 353.673 261.855 353.224 263.683C356.222 266.962 361.125 267.182 365.403 268.221C368.666 269.007 371.726 270.37 374.923 271.33C378.79 272.493 382.806 273.063 386.837 273.021C389.558 272.992 392.442 272.606 394.554 270.877C397.152 268.745 397.96 265.121 398.523 261.772C398.837 259.902 399.127 258.006 398.931 256.12C398.719 253.95 397.895 251.898 397.079 249.886L391.491 236.068C390.476 233.575 389.452 231.044 388.228 228.638C384.231 220.854 377.599 212.779 368.997 213.324Z" fill="#3F3D56"/>
        <path d="M373.973 127.042C374.456 125.749 375.347 124.657 376.507 123.937C377.666 123.217 379.027 122.91 380.377 123.065C382.008 123.298 383.464 124.208 384.863 125.097L392.654 130.051C393.945 130.834 395.183 131.703 396.361 132.652C401.733 137.191 403.805 144.65 404.396 151.736C404.988 158.821 404.396 166.027 405.779 172.996C402.492 175.773 398.845 178.121 395.558 180.892C393.837 182.343 392.095 183.801 390.79 185.667C389.754 187.134 389.015 188.813 387.935 190.239C386.165 192.492 383.597 193.945 380.785 194.286C382.567 195.342 383.566 197.391 384.048 199.431C384.529 201.472 384.659 203.587 385.194 205.627C385.928 208.399 387.449 210.93 387.951 213.756C388.302 215.705 388.147 217.704 388.273 219.682C388.909 229.918 396.794 238.865 396.284 249.105C392.562 247.727 389.042 245.841 385.818 243.499C384.366 242.439 382.963 241.292 381.588 240.149L371.199 231.568C366.146 227.412 361.043 223.165 357.026 217.945C354.505 214.67 352.449 211.047 349.921 207.78C347.392 204.514 344.28 201.547 340.417 200.175C339.85 201.044 338.843 201.646 338.276 202.515C338.176 202.652 338.096 202.803 338.039 202.964C337.97 203.351 338.017 203.751 338.174 204.111C338.629 205.791 338.903 207.518 338.99 209.26L339.246 212.385C339.342 213.213 339.342 214.05 339.246 214.878C338.859 217.55 336.428 219.624 333.805 220.04C333.426 220.123 333.033 220.11 332.659 220.002C331.929 219.753 331.525 218.967 331.305 218.219C330.273 214.67 331.856 210.926 331.982 207.232C332 206.294 331.969 205.356 331.888 204.422L331.644 200.736C329.274 200.233 327.912 197.64 327.284 195.259C325.587 188.83 323.878 182.177 324.861 175.594C325.122 173.832 325.579 172.045 325.269 170.283C324.861 167.926 323.197 166.015 322.32 163.796C319.465 156.561 325.53 148.706 324.967 140.939C324.73 137.677 322.699 134.843 321.475 131.817C320.842 130.054 320.021 128.366 319.028 126.785C317.78 124.969 316.095 123.514 314.46 122.051C309.409 117.535 304.618 112.726 300.111 107.647C297.796 107.403 295.625 106.389 293.932 104.763C292.855 103.724 291.97 102.353 291.941 100.844C291.913 99.3358 293.006 97.7525 294.486 97.6735C295.351 97.6278 296.159 98.0642 297.003 98.2553C299.646 98.8455 302.305 96.8632 303.484 94.3739C304.663 91.8846 304.663 89.0213 304.642 86.2619C305.934 86.0282 307.263 86.1376 308.501 86.5794C309.739 87.0213 310.845 87.7807 311.711 88.7844C313.534 90.8041 314.721 93.3225 316.157 95.6414C316.741 96.6717 317.491 97.5946 318.376 98.3717C320.337 99.9592 323.164 100.258 324.877 102.112C325.746 103.059 326.227 104.314 327.022 105.328C329.258 108.183 333.349 108.533 336.404 110.411C339.459 112.289 341.584 115.722 344.969 116.836C346.193 117.251 347.526 117.305 348.738 117.767C351.536 118.826 353.245 121.856 353.632 124.869C354.02 127.882 353.359 130.928 352.69 133.895L351.12 140.839C350.773 142.377 350.508 144.226 351.621 145.323C352.148 145.767 352.765 146.084 353.428 146.25C356.283 147.198 359.465 148.128 362.149 146.786C363.417 146.146 364.412 145.066 365.322 143.96C369.303 139.181 371.95 132.923 373.973 127.042Z" fill="#1F28CF"/>
        <path d="M406.167 268.358C405.604 272.161 403.548 275.901 400.183 277.642C398.166 278.656 395.837 278.82 393.702 278.1C392.227 277.631 390.955 276.66 390.1 275.348C389.659 274.637 389.333 273.859 389.134 273.042C389.134 273 389.113 272.955 389.105 272.913C388.799 271.443 388.671 269.94 388.726 268.437C388.725 266.105 388.861 263.775 389.134 261.46C389.361 259.51 389.738 257.582 390.26 255.692C391.018 252.995 392.111 250.397 393.115 247.796C393.637 246.424 394.138 245.049 394.55 243.64C394.799 242.809 395.011 241.953 395.183 241.088L395.244 240.777C395.276 240.602 395.305 240.428 395.333 240.253C395.741 237.884 395.86 235.432 396.908 233.292C399.355 228.268 404.119 229.552 404.845 234.186C404.9 234.545 404.931 234.907 404.939 235.27C405.049 241.134 402.765 246.865 403.809 252.749C404.104 254.185 404.474 255.602 404.919 256.997C405.286 258.281 405.616 259.582 405.869 260.899C406.381 263.35 406.482 265.873 406.167 268.358Z" fill="#BE6F72"/>
        <path d="M408.41 203.155C408.52 205.557 408.41 207.988 408.883 210.344C409.988 215.913 414.185 220.842 413.72 226.502C413.606 227.881 413.105 229.365 411.922 230.047C410.739 230.728 408.781 230.674 408.394 232.046C408.283 232.428 408.341 232.843 408.218 233.222C407.961 234.028 406.995 234.373 406.179 234.352C405.363 234.331 404.547 234.057 403.703 234.128C400.746 234.381 399.661 238.412 397.026 239.796C395.252 240.727 392.947 240.212 391.483 238.836C390.019 237.46 389.378 235.316 389.493 233.284C389.578 231.75 390.055 230.271 390.308 228.758C390.769 226.061 390.529 223.298 390.288 220.571C389.933 216.578 389.566 212.534 388.277 208.748C387.669 206.961 386.862 205.253 386.336 203.442C385.585 200.877 385.414 198.18 385.336 195.508C385.177 189.885 385.557 183.872 388.852 179.351C391.328 175.96 394.877 173.204 397.679 170.067C399.433 168.101 399.938 167.486 401.876 169.152C403.471 170.52 405.139 172.406 405.318 174.26C405.808 179.01 405.318 183.681 406.191 188.518C407.064 193.356 408.182 198.189 408.41 203.155Z" fill="#1F28CF"/>
        <path d="M366.105 111.624C377.593 111.624 386.907 102.135 386.907 90.4301C386.907 78.7248 377.593 69.2357 366.105 69.2357C354.617 69.2357 345.303 78.7248 345.303 90.4301C345.303 102.135 354.617 111.624 366.105 111.624Z" fill="#BE6F72"/>
        <path d="M385.153 130.974C385.61 130.321 386.152 129.619 386.927 129.482C387.512 129.437 388.098 129.562 388.616 129.843L394.093 132.175C395.574 129.684 396.446 126.868 396.639 123.963C396.753 122.18 396.614 120.372 396.949 118.619C397.446 116.017 398.959 113.686 399.31 111.059C399.588 108.94 399.086 106.808 398.784 104.693C397.854 98.1598 398.853 91.4939 398.319 84.9154C397.785 78.3368 395.195 71.2887 389.436 68.2675C387.804 67.4363 386.046 66.9376 384.349 66.281C380.568 64.814 377.179 62.466 373.443 60.8785C369.707 59.291 365.318 58.5638 361.696 60.3882C358.074 62.2125 355.965 67.3449 358.319 70.6944C359.094 71.7957 360.228 72.577 361.313 73.3707C363.519 74.979 365.771 76.9654 366.28 79.6833C367.194 84.5746 362.202 88.4104 360.795 93.1936C360.275 95.0616 360.229 97.0333 360.66 98.9244C361.268 101.759 362.752 104.435 362.699 107.336C362.658 110.515 360.79 113.395 360.44 116.557C360.313 117.717 360.391 118.893 360.248 120.048C359.997 121.572 359.554 123.057 358.931 124.466C355.668 132.777 352.36 141.176 347.51 148.648C352.702 148.738 357.835 147.516 362.45 145.091C361.787 148.294 360.517 151.335 358.71 154.042C362.86 153.553 366.852 152.134 370.4 149.886C369.539 153.027 368.292 156.045 366.688 158.867C366.827 158.626 369.393 158.036 369.866 157.761C370.838 157.198 371.62 156.348 372.109 155.322C373.496 152.795 374.36 149.749 375.645 147.123C378.392 141.493 381.571 136.093 385.153 130.974Z" fill="#3F3D56"/>
        <path d="M227.395 3.78685C226.407 3.88825 225.413 3.91187 224.421 3.8575C224.252 3.83868 224.083 3.88824 223.949 3.9955C223.816 4.10276 223.729 4.25915 223.707 4.43099L221.811 18.9262C221.665 19.9785 221.242 20.9708 220.587 21.7979C220.047 22.4561 219.646 23.2203 219.408 24.0431C219.17 24.866 219.101 25.7299 219.205 26.5811V51.2039C219.205 51.2039 219.082 54.487 221.558 54.487C224.521 54.8663 227.519 54.8663 230.482 54.487C230.482 54.487 232.465 54.1047 232.465 51.0751V26.8305C232.616 25.9846 232.585 25.1153 232.373 24.283C232.162 23.4506 231.776 22.6749 231.241 22.0098C230.608 21.1797 230.199 20.1956 230.054 19.1548L228.084 4.35618C228.062 4.18981 227.978 4.03835 227.85 3.9326C227.722 3.82685 227.559 3.77473 227.395 3.78685Z" fill="#3F3D56"/>
        <path d="M227.407 27.0216H224.401C221.912 27.0216 219.894 29.0776 219.894 31.6137V43.1376C219.894 45.6738 221.912 47.7297 224.401 47.7297H227.407C229.896 47.7297 231.914 45.6738 231.914 43.1376V31.6137C231.914 29.0776 229.896 27.0216 227.407 27.0216Z" fill="#1F28CF"/>
        <path d="M255.538 24.9812C254.55 25.0826 253.556 25.1062 252.565 25.0518C252.396 25.033 252.226 25.0825 252.093 25.1898C251.959 25.2971 251.872 25.4535 251.851 25.6253L249.954 40.1205C249.808 41.1728 249.386 42.1651 248.731 42.9922C248.191 43.6504 247.789 44.4146 247.552 45.2374C247.314 46.0603 247.244 46.9242 247.348 47.7754V72.3982C247.348 72.3982 247.226 75.6813 249.701 75.6813C252.665 76.0606 255.663 76.0606 258.626 75.6813C258.626 75.6813 260.608 75.2989 260.608 72.2694V48.0248C260.759 47.1789 260.728 46.3097 260.517 45.4773C260.305 44.6449 259.919 43.8692 259.384 43.2041C258.751 42.374 258.342 41.3899 258.197 40.3491L256.227 25.5505C256.205 25.3841 256.121 25.2327 255.993 25.1269C255.865 25.0212 255.702 24.969 255.538 24.9812Z" fill="#3F3D56"/>
        <path d="M255.55 48.216H252.544C250.055 48.216 248.037 50.2719 248.037 52.8081V64.332C248.037 66.8681 250.055 68.9241 252.544 68.9241H255.55C258.04 68.9241 260.057 66.8681 260.057 64.332V52.8081C260.057 50.2719 258.04 48.216 255.55 48.216Z" fill="#1F28CF"/>
        <g opacity="0.2">
            <path opacity="0.2" d="M223.903 273.3C223.89 273.748 223.84 274.194 223.752 274.634C220.914 274.174 218.058 273.758 215.187 273.387C215.187 273.271 215.187 273.15 215.187 273.03C215.214 271.783 215.566 270.567 216.207 269.505C217.047 268.151 218.324 267.303 219.731 267.349C221.138 267.394 222.357 268.321 223.112 269.722C223.683 270.822 223.956 272.057 223.903 273.3Z" fill="#3F3D56"/>
            <path opacity="0.2" d="M224.132 266.203C224.232 262.989 222.36 260.321 219.951 260.243C217.541 260.166 215.508 262.708 215.408 265.922C215.308 269.136 217.181 271.804 219.59 271.882C221.999 271.96 224.033 269.417 224.132 266.203Z" fill="#3F3D56"/>
            <path opacity="0.2" d="M224.355 259.088C224.454 255.874 222.582 253.206 220.173 253.129C217.764 253.051 215.73 255.594 215.631 258.807C215.531 262.021 217.403 264.69 219.812 264.767C222.221 264.845 224.255 262.302 224.355 259.088Z" fill="#3F3D56"/>
            <path opacity="0.2" d="M224.573 251.974C224.673 248.76 222.801 246.091 220.392 246.014C217.982 245.936 215.949 248.479 215.849 251.693C215.749 254.907 217.621 257.575 220.031 257.652C222.44 257.73 224.473 255.187 224.573 251.974Z" fill="#3F3D56"/>
            <path opacity="0.2" d="M224.796 244.859C224.895 241.645 223.023 238.976 220.614 238.899C218.205 238.821 216.171 241.364 216.071 244.578C215.972 247.792 217.844 250.46 220.253 250.538C222.662 250.615 224.696 248.073 224.796 244.859Z" fill="#3F3D56"/>
            <path opacity="0.2" d="M205.59 195.487C205.015 194.695 204.497 193.862 204.04 192.994L215.566 191.444L203.159 191.14C202.052 188.465 201.492 185.587 201.513 182.683C201.535 179.779 202.138 176.91 203.285 174.252L219.649 183.581L204.66 171.596C206.172 169.104 208.172 166.957 210.535 165.288C212.899 163.619 215.574 162.465 218.395 161.897C221.216 161.329 224.121 161.359 226.93 161.987C229.739 162.614 232.39 163.825 234.719 165.544C237.048 167.262 239.004 169.452 240.465 171.975C241.926 174.498 242.86 177.301 243.21 180.209C243.56 183.117 243.318 186.067 242.499 188.875C241.679 191.684 240.3 194.29 238.448 196.53C239.342 197.763 240.101 199.091 240.712 200.491L225.584 207.888L241.625 202.972C242.636 206.368 242.798 209.968 242.099 213.444C241.4 216.921 239.86 220.165 237.62 222.882C239.949 226.102 241.342 229.924 241.639 233.912C241.936 237.9 241.126 241.893 239.301 245.434C237.476 248.975 234.709 251.921 231.318 253.936C227.927 255.95 224.048 256.952 220.124 256.826C216.201 256.7 212.391 255.451 209.131 253.223C205.871 250.995 203.293 247.877 201.69 244.226C200.087 240.575 199.526 236.538 200.069 232.577C200.612 228.616 202.238 224.89 204.762 221.827C201.979 217.979 200.547 213.29 200.695 208.513C200.843 203.736 202.562 199.149 205.577 195.487H205.59Z" fill="#1F28CF"/>
            <path opacity="0.1" d="M242.515 209.858C242.372 214.638 240.647 219.228 237.62 222.882C239.949 226.102 241.342 229.924 241.639 233.912C241.936 237.9 241.126 241.893 239.301 245.434C237.476 248.975 234.709 251.921 231.318 253.936C227.927 255.95 224.048 256.952 220.124 256.826C216.201 256.7 212.391 255.451 209.131 253.223C205.871 250.995 203.293 247.877 201.69 244.226C200.087 240.575 199.526 236.538 200.069 232.577C200.612 228.616 202.238 224.89 204.762 221.827C202.082 218.115 242.588 207.468 242.515 209.858Z" fill="black"/>
        </g>
    </g>
    <defs>
        <clipPath id="clip0">
            <rect width="463" height="296.255" fill="white" transform="translate(0 0.586914)"/>
        </clipPath>
    </defs>
</svg>